<svg width="42" height="42" viewBox="0 0 42 42" fill="none" xmlns="http://www.w3.org/2000/svg">
<path d="M28.8473 13.1774C28.8552 13.1774 28.8657 13.1774 28.8762 13.1774C29.1505 13.1774 29.4051 13.2627 29.6138 13.4097L29.6099 13.4071C29.7621 13.5397 29.8645 13.726 29.8894 13.936V13.94C29.9157 14.1001 29.9301 14.2838 29.9301 14.4715C29.9301 14.5568 29.9275 14.6408 29.9209 14.7248V14.713C29.6256 17.8223 28.3446 25.3627 27.6936 28.8434C27.418 30.3173 26.8759 30.8108 26.3509 30.8581C25.2104 30.9644 24.3441 30.1047 23.239 29.3802C21.5091 28.2449 20.5313 27.5388 18.8526 26.4323C16.9114 25.1553 18.1701 24.4505 19.2753 23.3033C19.5653 23.0015 24.5935 18.4274 24.6919 18.0127C24.6972 17.9877 24.6998 17.9602 24.6998 17.9313C24.6998 17.8289 24.6618 17.7357 24.6001 17.6648C24.5318 17.6202 24.4465 17.5953 24.3573 17.5953C24.2982 17.5953 24.2418 17.6071 24.1893 17.6268L24.1919 17.6255C24.0186 17.6648 21.2554 19.491 15.9021 23.1038C15.3181 23.5645 14.5804 23.8559 13.7772 23.89H13.7693C12.6314 23.7522 11.5984 23.4989 10.618 23.138L10.7151 23.1695C9.484 22.7678 8.50619 22.5565 8.59019 21.8767C8.63481 21.5232 9.12219 21.1613 10.0523 20.7912C15.7818 18.2948 19.6025 16.6494 21.5144 15.8549C23.6236 14.7353 26.0688 13.814 28.6399 13.2168L28.846 13.1761L28.8473 13.1774ZM20.7203 1.34521C9.82394 1.37146 1 10.2112 1 21.1115C1 32.0275 9.84888 40.8777 20.7663 40.8777C31.6836 40.8777 40.5325 32.0288 40.5325 21.1115C40.5325 10.2112 31.7086 1.37146 20.8148 1.34521H20.8122C20.7816 1.34521 20.7509 1.34521 20.7203 1.34521Z" fill="black"/>
</svg>
