<svg width="44" height="60" viewBox="0 0 44 60" fill="none" xmlns="http://www.w3.org/2000/svg">
<path d="M22.3284 60L4.768 55.1809L0.854736 11.7914H43.8547L39.9373 55.1741L22.3284 60Z" fill="#264DE4"/>
<path d="M36.5836 52.4116L39.9313 15.3391H22.3547V56.3113L36.5836 52.4116Z" fill="#2965F1"/>
<path d="M9.8258 31.4317L10.3083 36.7532H22.3547V31.4317H9.8258Z" fill="#EBEBEB"/>
<path d="M8.85635 20.6607L9.3457 25.9823H22.3547V20.6607H8.85635Z" fill="#EBEBEB"/>
<path d="M22.3547 45.2523L22.3311 45.2585L16.3359 43.6582L15.9526 39.414H10.5488L11.303 47.7696L22.33 50.7957L22.3547 50.7889V45.2523Z" fill="#EBEBEB"/>
<path d="M10.9745 0H17.4944V2.69531H13.701V5.39063H17.4944V8.08594H10.9745V0Z" fill="black"/>
<path d="M18.7984 0H25.3183V2.34375H21.5249V2.8125H25.3183V8.20312H18.7984V5.74219H22.5918V5.27344H18.7984V0Z" fill="black"/>
<path d="M26.6223 0H33.1423V2.34375H29.3488V2.8125H33.1423V8.20312H26.6223V5.74219H30.4157V5.27344H26.6223V0Z" fill="black"/>
<path d="M34.8492 31.4317L35.821 20.6607H22.3361V25.9823H29.9215L29.4317 31.4317H22.3361V36.7532H28.9649L28.34 43.6548L22.3361 45.2568V50.7932L33.3719 47.7696L34.7178 32.8607L34.8492 31.4317Z" fill="white"/>
</svg>
