<svg width="70" height="70" viewBox="0 0 70 70" fill="none" xmlns="http://www.w3.org/2000/svg">
<path d="M35.8209 64L18.6596 59.3415L14.8353 17.3984H56.858L53.0296 59.335L35.8209 64Z" fill="#264DE4"/>
<path d="M49.7522 56.6645L53.0238 20.8278H35.8466V60.4343L49.7522 56.6645Z" fill="#2965F1"/>
<path d="M23.6025 36.384L24.074 41.5281H35.8466V36.384H23.6025Z" fill="#EBEBEB"/>
<path d="M22.6551 25.972L23.1333 31.1162H35.8466V25.972H22.6551Z" fill="#EBEBEB"/>
<path d="M35.8466 49.7439L35.8236 49.7499L29.9646 48.2029L29.59 44.1002H24.3091L25.0461 52.1773L35.8225 55.1025L35.8466 55.0959V49.7439Z" fill="#EBEBEB"/>
<path d="M24.7251 6H31.0968V8.60547H27.3896V11.2109H31.0968V13.8164H24.7251V6Z" fill="black"/>
<path d="M32.3712 6H38.7429V8.26562H35.0357V8.71875H38.7429V13.9297H32.3712V11.5508H36.0784V11.0977H32.3712V6Z" fill="black"/>
<path d="M40.0173 6H46.3891V8.26562H42.6818V8.71875H46.3891V13.9297H40.0173V11.5508H43.7244V11.0977H40.0173V6Z" fill="black"/>
<path d="M48.0572 36.384L49.0069 25.972H35.8285V31.1162H43.2415L42.7628 36.384H35.8285V41.5281H42.3066L41.6959 48.1996L35.8285 49.7482V55.1001L46.6134 52.1773L47.9288 37.7653L48.0572 36.384Z" fill="white"/>
</svg>
