<svg width="70" height="70" viewBox="0 0 70 70" fill="none" xmlns="http://www.w3.org/2000/svg">
<path d="M63.022 5.36279H6.97802C5.88559 5.36279 5 7.8399 5 10.8956V58.8464C5 61.9021 5.88559 64.3792 6.97802 64.3792H63.022C64.1144 64.3792 65 61.9021 65 58.8464V10.8956C65 7.8399 64.1144 5.36279 63.022 5.36279Z" fill="black"/>
<path d="M50.9375 20.1169V28.8154H48.3343V24.3593L40.1429 32.1794L38.3023 30.4222L46.4936 22.6021H41.8259V20.1169H50.9375ZM28.1741 20.1169V22.6021H23.5064L31.6977 30.4222L29.8571 32.1794L21.6658 24.3593V28.8154H19.0625V20.1169H28.1741ZM40.1429 38.4847L48.3343 46.3047V41.8487H50.9375V50.5472H41.8259V48.0619H46.4936L38.3023 40.2419L40.1429 38.4847ZM38.4002 30.2603L40.3125 31.9854L23.5424 48.0347H28.2479V50.5472H19.0625V41.7533H21.6869V46.2582L38.4002 30.2603Z" fill="white"/>
</svg>
