<svg width="60" height="60" viewBox="0 0 60 60" fill="none" xmlns="http://www.w3.org/2000/svg">
<path d="M58.022 0.362793H1.97802C0.885591 0.362793 0 2.8399 0 5.89558V53.8464C0 56.9021 0.885591 59.3792 1.97802 59.3792H58.022C59.1144 59.3792 60 56.9021 60 53.8464V5.89558C60 2.8399 59.1144 0.362793 58.022 0.362793Z" fill="black"/>
<path d="M45.9375 15.1169V23.8154H43.3343V19.3593L35.1429 27.1794L33.3023 25.4222L41.4936 17.6021H36.8259V15.1169H45.9375ZM23.1741 15.1169V17.6021H18.5064L26.6977 25.4222L24.8571 27.1794L16.6658 19.3593V23.8154H14.0625V15.1169H23.1741ZM35.1429 33.4847L43.3343 41.3047V36.8487H45.9375V45.5472H36.8259V43.0619H41.4936L33.3023 35.2419L35.1429 33.4847ZM33.4002 25.2603L35.3125 26.9854L18.5424 43.0347H23.2479V45.5472H14.0625V36.7533H16.6869V41.2582L33.4002 25.2603Z" fill="white"/>
</svg>
