<svg width="36" height="56" viewBox="0 0 36 56" fill="none" xmlns="http://www.w3.org/2000/svg">
<path d="M18 27.871C18 22.807 22.0312 18.7056 27 18.7056C31.9727 18.7056 36 22.8031 36 27.871C36 32.9349 31.9727 37.0363 27 37.0363C22.0352 37.0363 18 32.9388 18 27.871Z" fill="#1ABCFE"/>
<path d="M0 46.2056C0 41.1417 4.03121 37.0363 9 37.0363H18V46.2056C18 51.2656 13.9688 55.371 9 55.371C4.03121 55.371 0 51.2656 0 46.2056Z" fill="#0ACF83"/>
<path d="M18 0.370972V18.7056L27 18.7056C31.9727 18.7056 36 14.6003 36 9.53633C36 4.47633 31.9727 0.370972 27 0.370972H18Z" fill="#FF7262"/>
<path d="M0 9.53633C0 14.6003 4.03121 18.7056 9 18.7056H18V0.370972H9C4.03121 0.370972 0 4.47633 0 9.53633Z" fill="#F24E1E"/>
<path d="M0 27.871C0 32.9349 4.03121 37.0363 9 37.0363H18V18.7056H9C4.03121 18.7056 0 22.8031 0 27.871Z" fill="#A259FF"/>
</svg>
