<svg width="70" height="70" viewBox="0 0 70 70" fill="none" xmlns="http://www.w3.org/2000/svg">
<path d="M35.5 34.8664C35.5 29.6215 39.6432 25.3737 44.75 25.3737C49.8608 25.3737 54 29.6175 54 34.8664C54 40.1111 49.8608 44.359 44.75 44.359C39.6473 44.359 35.5 40.1152 35.5 34.8664Z" fill="#1ABCFE"/>
<path d="M17 53.8558C17 48.6111 21.1432 44.359 26.25 44.359H35.5V53.8558C35.5 59.0965 31.3568 63.3485 26.25 63.3485C21.1432 63.3485 17 59.0965 17 53.8558Z" fill="#0ACF83"/>
<path d="M35.5 6.38422V25.3737L44.75 25.3737C49.8608 25.3737 54 21.1217 54 15.8769C54 10.6362 49.8608 6.38422 44.75 6.38422H35.5Z" fill="#FF7262"/>
<path d="M17 15.8769C17 21.1217 21.1432 25.3737 26.25 25.3737H35.5V6.38422H26.25C21.1432 6.38422 17 10.6362 17 15.8769Z" fill="#F24E1E"/>
<path d="M17 34.8664C17 40.1111 21.1432 44.359 26.25 44.359H35.5V25.3737H26.25C21.1432 25.3737 17 29.6175 17 34.8664Z" fill="#A259FF"/>
</svg>
