<svg width="70" height="70" viewBox="0 0 70 70" fill="none" xmlns="http://www.w3.org/2000/svg">
<path d="M8.19163 37.7878C6.60279 36.1702 6.60279 33.5475 8.19163 31.9298L32.6231 7.05564C34.212 5.43801 36.788 5.43801 38.3769 7.05564L62.8083 31.9298C64.3973 33.5475 64.3973 36.1702 62.8083 37.7878L38.3769 62.662C36.788 64.2796 34.212 64.2796 32.6231 62.662L8.19163 37.7878Z" fill="#EE513B"/>
<path d="M27.6603 12.1877L25.1863 14.7067L31.5762 21.2123C31.3176 21.777 31.1733 22.4066 31.1733 23.0707C31.1733 24.9559 32.3367 26.5645 33.9724 27.1927V43.1073C32.3367 43.7355 31.1733 45.3441 31.1733 47.2294C31.1733 49.6617 33.1101 51.6336 35.4992 51.6336C37.8883 51.6336 39.8251 49.6617 39.8251 47.2294C39.8251 45.5203 38.8689 44.0384 37.4714 43.3084V27.2145L43.5796 33.4333C43.3336 33.9865 43.1968 34.6006 43.1968 35.2473C43.1968 37.6796 45.1337 39.6515 47.5227 39.6515C49.9119 39.6515 51.8487 37.6796 51.8487 35.2473C51.8487 32.8148 49.9119 30.843 47.5227 30.843C47.0584 30.843 46.6113 30.9173 46.192 31.0552L39.6319 24.3763C39.7575 23.9638 39.8251 23.5252 39.8251 23.0707C39.8251 20.6383 37.8883 18.6664 35.4992 18.6664C35.0528 18.6664 34.6222 18.7353 34.2169 18.8632L27.6603 12.1877Z" fill="white"/>
</svg>
