<svg width="59" height="61" viewBox="0 0 59 61" fill="none" xmlns="http://www.w3.org/2000/svg">
<path d="M1.23344 33.8993C-0.411146 32.2268 -0.411146 29.5152 1.23344 27.8427L26.5222 2.12532C28.1668 0.452857 30.8332 0.452857 32.4778 2.12532L57.7665 27.8427C59.4112 29.5152 59.4112 32.2268 57.7665 33.8993L32.4778 59.6166C30.8332 61.2891 28.1668 61.2891 26.5222 59.6166L1.23344 33.8993Z" fill="#EE513B"/>
<path d="M21.3852 7.43138L18.8244 10.0357L25.4385 16.7619C25.1709 17.3457 25.0215 17.9967 25.0215 18.6833C25.0215 20.6324 26.2257 22.2955 27.9188 22.945V39.3991C26.2257 40.0486 25.0215 41.7117 25.0215 43.6609C25.0215 46.1757 27.0262 48.2144 29.4992 48.2144C31.9721 48.2144 33.9769 46.1757 33.9769 43.6609C33.9769 41.8939 32.9871 40.3617 31.5406 39.607V22.9675L37.8631 29.3971C37.6085 29.9691 37.4669 30.604 37.4669 31.2726C37.4669 33.7874 39.4717 35.8261 41.9446 35.8261C44.4176 35.8261 46.4223 33.7874 46.4223 31.2726C46.4223 28.7577 44.4176 26.719 41.9446 26.719C41.464 26.719 41.0012 26.7959 40.5672 26.9384L33.7769 20.0331C33.9069 19.6066 33.9769 19.1532 33.9769 18.6833C33.9769 16.1684 31.9721 14.1297 29.4992 14.1297C29.0371 14.1297 28.5914 14.2009 28.1719 14.3331L21.3852 7.43138Z" fill="white"/>
</svg>
