<svg width="44" height="60" viewBox="0 0 44 60" fill="none" xmlns="http://www.w3.org/2000/svg">
<path d="M22.336 25.9824H14.7394L15.2313 31.4316H22.3547V25.9824H22.336Z" fill="#E44D26"/>
<path d="M0.854736 11.7914L4.76802 55.1808L22.3283 60L39.9373 55.1741L43.8547 11.7914H0.854736ZM36.5835 52.4117L22.3547 56.3113V50.7889L22.3299 50.7957L11.303 47.7696L10.5488 39.4141H15.9527L16.336 43.6582L22.3312 45.2586L22.3361 45.2572L22.3547 45.2518V36.7532H10.3082L8.85633 20.6608H22.3547V15.3392H39.9312L36.5835 52.4117Z" fill="#E44D26"/>
<path d="M33.3717 47.7696L22.3547 50.788L22.3547 56.3113L36.5835 52.4117L39.9312 15.3392H22.3547V20.6608L35.821 20.6607L35.339 25.9824L22.3547 25.9824V31.4316H34.8491L34.7177 32.8606L33.3717 47.7696Z" fill="#F16529"/>
<path d="M28.34 43.6548L28.9647 36.7531L22.3547 36.7532V45.2518L28.34 43.6548Z" fill="#F16529"/>
<path d="M15.2313 31.4316L14.7394 25.9824H22.336L22.336 20.6607L8.85633 20.6608L10.3082 36.7532L22.336 36.7531V31.4316H15.2313ZM22.336 50.7931L22.3361 45.2572L22.3312 45.2586L16.336 43.6582L15.9527 39.4141H10.5488L11.303 47.7696L22.3299 50.7957L22.3547 50.7889L22.336 50.7931Z" fill="#EBEBEB"/>
<path d="M7.59118 8.09111V5.38168H10.0937V8.09111H12.8293V0H10.0936V2.67193H7.59107V0H4.85559V8.09111H7.59118ZM19.1627 8.09111V2.68307H21.572V0H14.0184V2.68307H16.4269V8.09111H19.1627ZM22.7709 8.09111H25.4476V4.08064L27.331 6.95754H27.3781L29.2602 4.08064V8.09111H31.9846V0H29.131L27.3781 2.84293L25.6234 0H22.7709V8.09111ZM39.9296 8.09111V5.41661H36.0825V0H33.346V8.09111H39.9296Z" fill="black"/>
<path d="M28.34 43.6548L22.3547 45.2518L22.3361 45.2572L22.336 50.7931L22.3547 50.788L33.3717 47.7696L34.7177 32.8606L34.8491 31.4316H22.336V36.7531H28.9647L28.34 43.6548ZM22.336 25.9824L35.339 25.9824L35.821 20.6607L22.336 20.6607L22.336 25.9824Z" fill="white"/>
</svg>
