<svg width="70" height="70" viewBox="0 0 70 70" fill="none" xmlns="http://www.w3.org/2000/svg">
<path d="M35.8284 31.1163H28.4044L28.8851 36.3839H35.8466V31.1163H35.8284Z" fill="#E44D26"/>
<path d="M14.8353 17.3984L18.6597 59.3414L35.8208 64L53.0296 59.335L56.858 17.3984H14.8353ZM49.7521 56.6646L35.8466 60.4343V55.0959L35.8224 55.1025L25.0461 52.1773L24.3091 44.1003H29.5901L29.9647 48.2029L35.8237 49.75L35.8285 49.7486L35.8466 49.7434V41.5281H24.0739L22.6551 25.9721H35.8466V20.8279H53.0237L49.7521 56.6646Z" fill="#E44D26"/>
<path d="M46.6133 52.1773L35.8466 55.0959V60.4343L49.7521 56.6646L53.0237 20.8279H35.8466V25.9721L49.0069 25.972L48.5358 31.1163L35.8466 31.1163V36.3839H48.0571L47.9287 37.7652L46.6133 52.1773Z" fill="#F16529"/>
<path d="M41.6959 48.1996L42.3064 41.528L35.8466 41.5281V49.7434L41.6959 48.1996Z" fill="#F16529"/>
<path d="M28.8851 36.3839L28.4044 31.1163H35.8284V25.972L22.6551 25.9721L24.0739 41.5281L35.8284 41.528V36.3839H28.8851ZM35.8284 55.1L35.8285 49.7486L35.8237 49.75L29.9647 48.2029L29.5901 44.1003H24.3091L25.0461 52.1773L35.8224 55.1025L35.8466 55.0959L35.8284 55.1Z" fill="#EBEBEB"/>
<path d="M21.4187 13.8214V11.2023H23.8643V13.8214H26.5377V6H23.8642V8.58287H21.4185V6H18.7452V13.8214H21.4187ZM32.7272 13.8214V8.59363H35.0817V6H27.6998V8.59363H30.0536V13.8214H32.7272ZM36.2534 13.8214H38.8692V9.94462L40.7098 12.7256H40.7559L42.5952 9.94462V13.8214H45.2577V6H42.4689L40.7559 8.74817L39.0411 6H36.2534V13.8214ZM53.0221 13.8214V11.2361H49.2624V6H46.5881V13.8214H53.0221Z" fill="black"/>
<path d="M41.6959 48.1996L35.8466 49.7434L35.8285 49.7486L35.8284 55.1L35.8466 55.0959L46.6133 52.1773L47.9287 37.7652L48.0571 36.3839H35.8284V41.528H42.3064L41.6959 48.1996ZM35.8284 31.1163L48.5358 31.1163L49.0069 25.972H35.8284V31.1163Z" fill="white"/>
</svg>
