<svg width="70" height="70" viewBox="0 0 70 70" fill="none" xmlns="http://www.w3.org/2000/svg">
<path d="M55.2953 6H13.9953C9.10754 6 5.14526 9.89512 5.14526 14.7V55.3C5.14526 60.1049 9.10754 64 13.9953 64H55.2953C60.183 64 64.1453 60.1049 64.1453 55.3V14.7C64.1453 9.89512 60.183 6 55.2953 6Z" fill="#F7DF1E"/>
<path d="M42.4812 47.9141C43.6335 49.8398 45.2468 51.1992 47.8972 51.1992C50.2019 51.1992 51.7 50.0664 51.7 48.4805C51.7 46.668 50.2019 45.9883 47.6667 44.8555L46.2839 44.2891C42.2507 42.5898 39.6003 40.5508 39.6003 36.1328C39.6003 32.0547 42.7117 28.8828 47.6667 28.8828C51.239 28.8828 53.7742 30.1289 55.5027 33.3008L51.239 36.0195C50.3171 34.3203 49.28 33.6406 47.6667 33.6406C46.0535 33.6406 45.0164 34.6602 45.0164 36.0195C45.0164 37.6055 46.0535 38.2852 48.4734 39.3047L49.8562 39.8711C54.5808 41.9102 57.2312 43.8359 57.2312 48.4805C57.2312 53.3516 53.3132 56.0703 48.0125 56.0703C42.8269 56.0703 39.4851 53.6914 37.8718 50.5195L42.4812 47.9141ZM22.8914 48.3672C23.8132 49.8398 24.5046 51.1992 26.4636 51.1992C28.3074 51.1992 29.4597 50.5195 29.4597 47.8008V28.9961H34.991V47.5742C34.991 53.2383 31.6492 55.7305 26.6941 55.7305C22.2 55.7305 19.6648 53.4648 18.3972 50.7461L22.8914 48.3672Z" fill="black"/>
</svg>
