<svg width="60" height="58" viewBox="0 0 60 58" fill="none" xmlns="http://www.w3.org/2000/svg">
<path d="M50.2953 0H8.99526C4.10754 0 0.145264 3.89512 0.145264 8.7V49.3C0.145264 54.1049 4.10754 58 8.99526 58H50.2953C55.183 58 59.1453 54.1049 59.1453 49.3V8.7C59.1453 3.89512 55.183 0 50.2953 0Z" fill="#F7DF1E"/>
<path d="M37.4812 41.9141C38.6335 43.8398 40.2468 45.1992 42.8972 45.1992C45.2019 45.1992 46.7 44.0664 46.7 42.4805C46.7 40.668 45.2019 39.9883 42.6667 38.8555L41.2839 38.2891C37.2507 36.5898 34.6003 34.5508 34.6003 30.1328C34.6003 26.0547 37.7117 22.8828 42.6667 22.8828C46.239 22.8828 48.7742 24.1289 50.5027 27.3008L46.239 30.0195C45.3171 28.3203 44.28 27.6406 42.6667 27.6406C41.0535 27.6406 40.0164 28.6602 40.0164 30.0195C40.0164 31.6055 41.0535 32.2852 43.4734 33.3047L44.8562 33.8711C49.5808 35.9102 52.2312 37.8359 52.2312 42.4805C52.2312 47.3516 48.3132 50.0703 43.0125 50.0703C37.8269 50.0703 34.4851 47.6914 32.8718 44.5195L37.4812 41.9141ZM17.8914 42.3672C18.8132 43.8398 19.5046 45.1992 21.4636 45.1992C23.3074 45.1992 24.4597 44.5195 24.4597 41.8008V22.9961H29.991V41.5742C29.991 47.2383 26.6492 49.7305 21.6941 49.7305C17.2 49.7305 14.6648 47.4648 13.3972 44.7461L17.8914 42.3672Z" fill="black"/>
</svg>
