<svg width="70" height="70" viewBox="0 0 70 70" fill="none" xmlns="http://www.w3.org/2000/svg">
<path fill-rule="evenodd" clip-rule="evenodd" d="M52.6167 6.00001C55.7599 6.00001 58.6057 7.28134 60.6656 9.3521C62.7256 11.4229 64 14.2843 64 17.4442V52.5558C64 55.716 62.7259 58.5772 60.6659 60.6482C59.61 61.7125 58.3554 62.5565 56.974 63.1317C55.5927 63.7069 54.1119 64.002 52.6167 64H17.3833C14.2401 64 11.3943 62.7187 9.33438 60.6479C7.27444 58.5771 6 55.7157 6 52.5558V17.4442C6 14.284 7.27413 11.4229 9.33406 9.35178C10.39 8.28749 11.6446 7.44349 13.026 6.86828C14.4073 6.29307 15.8881 5.998 17.3833 6.00001H52.6167Z" fill="#EC5990"/>
<path fill-rule="evenodd" clip-rule="evenodd" d="M44.9426 19.5137H38.4354C37.9583 18.0195 36.5704 17.0053 35.0025 17.0053C33.4346 17.0053 32.0467 18.0195 31.5696 19.5137H25.0577C22.4938 19.5137 20.4155 21.5929 20.4155 24.1578V48.3538C20.4155 50.9186 22.4938 52.9979 25.0577 52.9979H44.9426C47.5065 52.9979 49.5848 50.9186 49.5848 48.3538V24.1578C49.5848 21.5929 47.5065 19.5137 44.9426 19.5137ZM31.8942 20.358C31.9921 20.3604 32.0879 20.3285 32.1649 20.2676C32.2419 20.2067 32.2954 20.1207 32.3161 20.0244C32.5924 18.7559 33.715 17.8511 35.0128 17.8511C36.3106 17.8511 37.4332 18.7556 37.7095 20.0244C37.7302 20.1207 37.7837 20.2067 37.8607 20.2676C37.9377 20.3285 38.0334 20.3604 38.1314 20.358H40.4018V23.1235C40.4018 23.8229 39.8349 24.3901 39.1358 24.3901H30.8854C30.1863 24.3901 29.6194 23.8229 29.6194 23.1235V20.358H31.8942ZM48.7407 48.3538C48.7407 50.4524 47.0403 52.1536 44.9426 52.1536H25.0577C22.96 52.1536 21.2596 50.4524 21.2596 48.3538V24.1578C21.2596 22.0591 22.96 20.358 25.0577 20.358H28.7756V23.1235C28.7756 24.2894 29.7204 25.2344 30.8857 25.2344H39.1149C40.2802 25.2344 41.225 24.2891 41.225 23.1235V20.358H44.9429C47.0406 20.358 48.741 22.0591 48.741 24.1578L48.7407 48.3538ZM44.1154 33.3111H36.6879C36.6326 33.311 36.5779 33.3218 36.5268 33.343C36.4756 33.3641 36.4292 33.3952 36.39 33.4344C36.3508 33.4736 36.3197 33.5202 36.2984 33.5715C36.2772 33.6228 36.2661 33.6778 36.266 33.7334C36.2661 33.789 36.2772 33.844 36.2984 33.8953C36.3197 33.9466 36.3508 33.9932 36.39 34.0324C36.4292 34.0716 36.4756 34.1027 36.5268 34.1238C36.5779 34.145 36.6326 34.1558 36.6879 34.1557H44.1154C44.1706 34.1558 44.2254 34.145 44.2765 34.1238C44.3276 34.1027 44.3741 34.0716 44.4133 34.0324C44.4525 33.9932 44.4836 33.9466 44.5049 33.8953C44.5261 33.844 44.5371 33.789 44.5373 33.7334C44.5371 33.6778 44.5261 33.6228 44.5049 33.5715C44.4836 33.5202 44.4525 33.4736 44.4133 33.4344C44.3741 33.3952 44.3276 33.3641 44.2765 33.343C44.2254 33.3218 44.1706 33.311 44.1154 33.3111ZM33.1434 33.3111H25.7159C25.6607 33.311 25.6059 33.3218 25.5548 33.343C25.5037 33.3641 25.4572 33.3952 25.418 33.4344C25.3788 33.4736 25.3477 33.5202 25.3264 33.5715C25.3052 33.6228 25.2942 33.6778 25.294 33.7334C25.2942 33.789 25.3052 33.844 25.3264 33.8953C25.3477 33.9466 25.3788 33.9932 25.418 34.0324C25.4572 34.0716 25.5037 34.1027 25.5548 34.1238C25.6059 34.145 25.6607 34.1558 25.7159 34.1557H33.1434C33.1987 34.1558 33.2534 34.145 33.3045 34.1238C33.3557 34.1027 33.4021 34.0716 33.4413 34.0324C33.4805 33.9932 33.5116 33.9466 33.5329 33.8953C33.5541 33.844 33.5652 33.789 33.5653 33.7334C33.5652 33.6778 33.5541 33.6228 33.5329 33.5715C33.5116 33.5202 33.4805 33.4736 33.4413 33.4344C33.4021 33.3952 33.3557 33.3641 33.3045 33.343C33.2534 33.3218 33.1987 33.311 33.1434 33.3111ZM44.1366 43.5282H36.6882C36.633 43.5281 36.5782 43.5389 36.5271 43.5601C36.4759 43.5812 36.4295 43.6123 36.3903 43.6515C36.3511 43.6907 36.32 43.7373 36.2987 43.7886C36.2775 43.8399 36.2665 43.8949 36.2663 43.9505C36.2665 44.0061 36.2775 44.0611 36.2987 44.1124C36.32 44.1637 36.3511 44.2103 36.3903 44.2495C36.4295 44.2887 36.4759 44.3198 36.5271 44.3409C36.5782 44.3621 36.633 44.3729 36.6882 44.3728H44.1366C44.1918 44.3729 44.2466 44.3621 44.2977 44.3409C44.3488 44.3198 44.3953 44.2887 44.4345 44.2495C44.4737 44.2103 44.5048 44.1637 44.5261 44.1124C44.5473 44.0611 44.5583 44.0061 44.5585 43.9505C44.5583 43.8949 44.5473 43.8399 44.5261 43.7886C44.5048 43.7373 44.4737 43.6907 44.4345 43.6515C44.3953 43.6123 44.3488 43.5812 44.2977 43.5601C44.2466 43.5389 44.1918 43.5281 44.1366 43.5282ZM33.1643 43.5282H25.7159C25.6607 43.5281 25.6059 43.5389 25.5548 43.5601C25.5037 43.5812 25.4572 43.6123 25.418 43.6515C25.3788 43.6907 25.3477 43.7373 25.3264 43.7886C25.3052 43.8399 25.2942 43.8949 25.294 43.9505C25.2942 44.0061 25.3052 44.0611 25.3264 44.1124C25.3477 44.1637 25.3788 44.2103 25.418 44.2495C25.4572 44.2887 25.5037 44.3198 25.5548 44.3409C25.6059 44.3621 25.6607 44.3729 25.7159 44.3728H33.1643C33.2196 44.3729 33.2743 44.3621 33.3254 44.3409C33.3766 44.3198 33.423 44.2887 33.4622 44.2495C33.5014 44.2103 33.5325 44.1637 33.5538 44.1124C33.575 44.0611 33.5861 44.0061 33.5862 43.9505C33.5861 43.8949 33.575 43.8399 33.5538 43.7886C33.5325 43.7373 33.5014 43.6907 33.4622 43.6515C33.423 43.6123 33.3766 43.5812 33.3254 43.5601C33.2743 43.5389 33.2196 43.5281 33.1643 43.5282Z" fill="white"/>
</svg>
