<svg width="60" height="60" viewBox="0 0 60 60" fill="none" xmlns="http://www.w3.org/2000/svg">
<path d="M49.9375 1H10.0625C5.05742 1 1 5.05742 1 10.0625V49.9375C1 54.9426 5.05742 59 10.0625 59H49.9375C54.9426 59 59 54.9426 59 49.9375V10.0625C59 5.05742 54.9426 1 49.9375 1Z" fill="#EC5990"/>
<path d="M27.7344 29.0938H19.5781C19.3279 29.0938 19.125 29.2966 19.125 29.5469C19.125 29.7971 19.3279 30 19.5781 30H27.7344C27.9846 30 28.1875 29.7971 28.1875 29.5469C28.1875 29.2966 27.9846 29.0938 27.7344 29.0938Z" fill="white"/>
<path d="M40.4219 29.0938H32.2656C32.0154 29.0938 31.8125 29.2966 31.8125 29.5469C31.8125 29.7971 32.0154 30 32.2656 30H40.4219C40.6721 30 40.875 29.7971 40.875 29.5469C40.875 29.2966 40.6721 29.0938 40.4219 29.0938Z" fill="white"/>
<path d="M27.7344 39.9688H19.5781C19.3279 39.9688 19.125 40.1716 19.125 40.4219C19.125 40.6721 19.3279 40.875 19.5781 40.875H27.7344C27.9846 40.875 28.1875 40.6721 28.1875 40.4219C28.1875 40.1716 27.9846 39.9688 27.7344 39.9688Z" fill="white"/>
<path d="M40.4219 39.9688H32.2656C32.0154 39.9688 31.8125 40.1716 31.8125 40.4219C31.8125 40.6721 32.0154 40.875 32.2656 40.875H40.4219C40.6721 40.875 40.875 40.6721 40.875 40.4219C40.875 40.1716 40.6721 39.9688 40.4219 39.9688Z" fill="white"/>
<path d="M22.75 13.6875V17.3125C22.75 18.8141 23.9672 20.0312 25.4688 20.0312H34.5312C36.0328 20.0312 37.25 18.8141 37.25 17.3125V13.6875M33.1719 13.6875H41.7812C44.2838 13.6875 46.3125 15.7162 46.3125 18.2188V45.4062C46.3125 47.9088 44.2838 49.9375 41.7812 49.9375H18.2188C15.7162 49.9375 13.6875 47.9088 13.6875 45.4062V18.2188C13.6875 15.7162 15.7162 13.6875 18.2188 13.6875H26.8281M33.625 13.6875C33.625 11.6855 32.002 10.0625 30 10.0625C27.998 10.0625 26.375 11.6855 26.375 13.6875M10.0625 1H49.9375C54.9426 1 59 5.05742 59 10.0625V49.9375C59 54.9426 54.9426 59 49.9375 59H10.0625C5.05742 59 1 54.9426 1 49.9375V10.0625C1 5.05742 5.05742 1 10.0625 1ZM19.5781 29.0938H27.7344C27.9846 29.0938 28.1875 29.2966 28.1875 29.5469C28.1875 29.7971 27.9846 30 27.7344 30H19.5781C19.3279 30 19.125 29.7971 19.125 29.5469C19.125 29.2966 19.3279 29.0938 19.5781 29.0938ZM32.2656 29.0938H40.4219C40.6721 29.0938 40.875 29.2966 40.875 29.5469C40.875 29.7971 40.6721 30 40.4219 30H32.2656C32.0154 30 31.8125 29.7971 31.8125 29.5469C31.8125 29.2966 32.0154 29.0938 32.2656 29.0938ZM19.5781 39.9688H27.7344C27.9846 39.9688 28.1875 40.1716 28.1875 40.4219C28.1875 40.6721 27.9846 40.875 27.7344 40.875H19.5781C19.3279 40.875 19.125 40.6721 19.125 40.4219C19.125 40.1716 19.3279 39.9688 19.5781 39.9688ZM32.2656 39.9688H40.4219C40.6721 39.9688 40.875 40.1716 40.875 40.4219C40.875 40.6721 40.6721 40.875 40.4219 40.875H32.2656C32.0154 40.875 31.8125 40.6721 31.8125 40.4219C31.8125 40.1716 32.0154 39.9688 32.2656 39.9688Z" stroke="white"/>
</svg>
