<svg width="70" height="70" viewBox="0 0 70 70" fill="none" xmlns="http://www.w3.org/2000/svg">
<path d="M35.2577 28.8137C31.8722 28.8137 29.1277 31.5582 29.1277 34.9438C29.1277 38.3293 31.8722 41.0738 35.2577 41.0738C38.6433 41.0738 41.3878 38.3293 41.3878 34.9438C41.3878 31.5582 38.6433 28.8137 35.2577 28.8137Z" fill="#087EA4"/>
<path d="M67.1407 34.9994C67.1407 30.1868 62.6841 25.9659 55.5883 23.1881C55.6832 22.5626 55.7689 21.9438 55.8299 21.3363C56.5298 14.4212 54.8636 9.43022 51.1408 7.28026C46.9754 4.87511 41.0919 6.62082 35.143 11.3814C29.1941 6.62082 23.3106 4.87511 19.1453 7.28026C15.4224 9.43022 13.7562 14.4212 14.4561 21.3363C14.5171 21.9438 14.6006 22.5648 14.6977 23.1927C14.1062 23.4185 13.526 23.6579 12.9683 23.9086C6.63334 26.7564 3.14526 30.6995 3.14526 34.9994C3.14526 39.8119 7.60188 44.0328 14.6977 46.8106C14.6006 47.4362 14.5171 48.0549 14.4561 48.6624C13.7562 55.5775 15.4224 60.5685 19.1453 62.7185C20.4252 63.4443 21.8756 63.8154 23.3468 63.7935C26.8732 63.7935 30.9912 61.9371 35.143 58.6173C39.2926 61.9371 43.4128 63.7935 46.9438 63.7935C48.4149 63.8151 49.8652 63.444 51.1453 62.7185C54.8681 60.5685 56.5343 55.5775 55.8344 48.6624C55.7735 48.0549 55.6877 47.4362 55.5928 46.8106C62.6887 44.0373 67.1453 39.8097 67.1453 34.9994M46.9167 9.25407C47.8626 9.23124 48.7976 9.46039 49.6259 9.91802C52.2109 11.4108 53.3713 15.46 52.8069 21.0269C52.7685 21.4063 52.7234 21.7902 52.6692 22.1764C49.7187 21.2876 46.6974 20.6537 43.6386 20.2816C41.7843 17.8161 39.7223 15.5139 37.4752 13.4004C41.0039 10.6723 44.3159 9.25407 46.9144 9.25407M45.7021 41.0969C44.5602 43.0794 43.3169 45.0015 41.9769 46.8558C39.7057 47.0891 37.4239 47.2052 35.1408 47.2036C32.8583 47.2051 30.5773 47.0891 28.3068 46.8558C26.9705 45.0015 25.7309 43.0793 24.593 41.0969C23.4512 39.12 22.4135 37.0847 21.4842 34.9994C22.4135 32.914 23.4512 30.8787 24.593 28.9018C25.7291 26.9274 26.9648 25.0121 28.2955 23.1633C30.5702 22.9241 32.8558 22.805 35.143 22.8065C37.4254 22.8051 39.7064 22.9212 41.9769 23.1543C43.3122 25.0059 44.5525 26.9242 45.693 28.9018C46.8339 30.8792 47.8716 32.9145 48.8018 34.9994C47.8716 37.0843 46.8339 39.1195 45.693 41.0969M50.3551 38.8386C51.0716 40.793 51.6599 42.7922 52.1161 44.8232C50.1363 45.4406 48.1181 45.9272 46.0746 46.2799C46.8512 45.1085 47.6038 43.8898 48.3322 42.6236C49.0524 41.3725 49.7275 40.11 50.3641 38.8476M30.8557 50.1146C32.26 50.2004 33.6936 50.2501 35.1453 50.2501C36.5969 50.2501 38.0396 50.2004 39.4461 50.1146C38.1125 51.7124 36.6758 53.2212 35.1453 54.6313C33.618 53.2214 32.1851 51.7126 30.8557 50.1146ZM24.2137 46.2754C22.1695 45.9243 20.1506 45.4392 18.17 44.8232C18.6243 42.7954 19.2103 40.7993 19.9242 38.8476C20.5518 40.11 21.2246 41.3725 21.956 42.6236C22.6875 43.8747 23.4438 45.1078 24.2137 46.2799M19.9242 31.1489C19.2129 29.2045 18.6284 27.2159 18.1745 25.1958C20.1502 24.5792 22.1637 24.0911 24.2024 23.7347C23.4303 24.9022 22.674 26.1127 21.9448 27.3751C21.2155 28.6376 20.5495 29.8842 19.9129 31.1489M39.4326 19.8819C38.0283 19.7961 36.5947 19.7464 35.1317 19.7464C33.6808 19.7464 32.251 19.7916 30.8422 19.8819C32.1715 18.2839 33.6045 16.7751 35.1317 15.3652C36.6629 16.7747 38.0996 18.2836 39.4326 19.8819ZM48.3277 27.3751C47.5962 26.1075 46.8399 24.8879 46.0588 23.7166C48.1077 24.0693 50.1312 24.5566 52.1161 25.1755C51.6606 27.2031 51.0747 29.1991 50.3619 31.1511C49.7342 29.8887 49.0592 28.6263 48.33 27.3774M17.4881 21.0292C16.917 15.4646 18.0842 11.4131 20.6669 9.92028C21.4955 9.46336 22.4303 9.23426 23.3761 9.25632C25.9747 9.25632 29.2867 10.6746 32.8154 13.4027C30.5667 15.5177 28.5032 17.8213 26.6474 20.2884C23.5895 20.6622 20.5685 21.2938 17.6168 22.1764C17.5649 21.7902 17.5175 21.4086 17.4814 21.0292M14.2191 26.6886C14.5667 26.538 14.9212 26.3875 15.2824 26.2369C15.9926 29.2339 16.9555 32.1652 18.1609 34.9994C16.9532 37.8391 15.9895 40.7765 15.2802 43.7799C9.52765 41.4199 6.1931 38.1498 6.1931 34.9994C6.1931 32.0138 9.12805 28.9854 14.2191 26.6886ZM20.6669 60.0785C18.0842 58.5857 16.917 54.5342 17.4881 48.9696C17.5243 48.5902 17.5717 48.2085 17.6236 47.8201C20.5741 48.7087 23.5954 49.3426 26.6542 49.7148C28.5091 52.1813 30.571 54.4849 32.8176 56.6006C27.8982 60.4014 23.4032 61.6548 20.6737 60.0785M52.8046 48.9696C53.3691 54.5364 52.2086 58.5857 49.6236 60.0785C46.8964 61.6593 42.3991 60.4014 37.4819 56.6006C39.7278 54.4849 41.789 52.1813 43.6431 49.7148C46.7019 49.3428 49.7232 48.7089 52.6737 47.8201C52.7279 48.2085 52.773 48.5902 52.8114 48.9696M55.0194 43.7754C54.3081 40.7738 53.3436 37.8379 52.1364 34.9994C53.3431 32.1593 54.3068 29.2219 55.0171 26.2189C60.7584 28.5789 64.1019 31.849 64.1019 34.9994C64.1019 38.1498 60.7674 41.4199 55.0149 43.7799" fill="#087EA4"/>
</svg>
