<svg width="65" height="58" viewBox="0 0 65 58" fill="none" xmlns="http://www.w3.org/2000/svg">
<path d="M32.2577 22.8137C28.8722 22.8137 26.1277 25.5582 26.1277 28.9438C26.1277 32.3293 28.8722 35.0738 32.2577 35.0738C35.6433 35.0738 38.3878 32.3293 38.3878 28.9438C38.3878 25.5582 35.6433 22.8137 32.2577 22.8137Z" fill="#087EA4"/>
<path d="M64.1407 28.9994C64.1407 24.1868 59.6841 19.9659 52.5883 17.1881C52.6832 16.5626 52.7689 15.9438 52.8299 15.3363C53.5298 8.42119 51.8636 3.43022 48.1408 1.28026C43.9754 -1.12489 38.0919 0.620818 32.143 5.38144C26.1941 0.620818 20.3106 -1.12489 16.1453 1.28026C12.4224 3.43022 10.7562 8.42119 11.4561 15.3363C11.5171 15.9438 11.6006 16.5648 11.6977 17.1927C11.1062 17.4185 10.526 17.6579 9.96832 17.9086C3.63334 20.7564 0.145264 24.6995 0.145264 28.9994C0.145264 33.8119 4.60188 38.0328 11.6977 40.8106C11.6006 41.4362 11.5171 42.0549 11.4561 42.6624C10.7562 49.5775 12.4224 54.5685 16.1453 56.7185C17.4252 57.4443 18.8756 57.8154 20.3468 57.7935C23.8732 57.7935 27.9912 55.9371 32.143 52.6173C36.2926 55.9371 40.4128 57.7935 43.9438 57.7935C45.4149 57.8151 46.8652 57.444 48.1453 56.7185C51.8681 54.5685 53.5343 49.5775 52.8344 42.6624C52.7735 42.0549 52.6877 41.4362 52.5928 40.8106C59.6887 38.0373 64.1453 33.8097 64.1453 28.9994M43.9167 3.25407C44.8626 3.23124 45.7976 3.46039 46.6259 3.91802C49.2109 5.4108 50.3713 9.46004 49.8069 15.0269C49.7685 15.4063 49.7234 15.7902 49.6692 16.1764C46.7187 15.2876 43.6974 14.6537 40.6386 14.2816C38.7843 11.8161 36.7223 9.51391 34.4752 7.40041C38.0039 4.67232 41.3159 3.25407 43.9144 3.25407M42.7021 35.0969C41.5602 37.0794 40.3169 39.0015 38.9769 40.8558C36.7057 41.0891 34.4239 41.2052 32.1408 41.2036C29.8583 41.2051 27.5773 41.0891 25.3068 40.8558C23.9705 39.0015 22.7309 37.0793 21.593 35.0969C20.4512 33.12 19.4135 31.0847 18.4842 28.9994C19.4135 26.914 20.4512 24.8787 21.593 22.9018C22.7291 20.9274 23.9648 19.0121 25.2955 17.1633C27.5702 16.9241 29.8558 16.805 32.143 16.8065C34.4254 16.8051 36.7064 16.9212 38.9769 17.1543C40.3122 19.0059 41.5525 20.9242 42.693 22.9018C43.8339 24.8792 44.8716 26.9145 45.8018 28.9994C44.8716 31.0843 43.8339 33.1195 42.693 35.0969M47.3551 32.8386C48.0716 34.793 48.6599 36.7922 49.1161 38.8232C47.1363 39.4406 45.1181 39.9272 43.0746 40.2799C43.8512 39.1085 44.6038 37.8898 45.3322 36.6236C46.0524 35.3725 46.7275 34.11 47.3641 32.8476M27.8557 44.1146C29.26 44.2004 30.6936 44.2501 32.1453 44.2501C33.5969 44.2501 35.0396 44.2004 36.4461 44.1146C35.1125 45.7124 33.6758 47.2212 32.1453 48.6313C30.618 47.2214 29.1851 45.7126 27.8557 44.1146ZM21.2137 40.2754C19.1695 39.9243 17.1506 39.4392 15.17 38.8232C15.6243 36.7954 16.2103 34.7993 16.9242 32.8476C17.5518 34.11 18.2246 35.3725 18.956 36.6236C19.6875 37.8747 20.4438 39.1078 21.2137 40.2799M16.9242 25.1489C16.2129 23.2045 15.6284 21.2159 15.1745 19.1958C17.1502 18.5792 19.1637 18.0911 21.2024 17.7347C20.4303 18.9022 19.674 20.1127 18.9448 21.3751C18.2155 22.6376 17.5495 23.8842 16.9129 25.1489M36.4326 13.8819C35.0283 13.7961 33.5947 13.7464 32.1317 13.7464C30.6808 13.7464 29.251 13.7916 27.8422 13.8819C29.1715 12.2839 30.6045 10.7751 32.1317 9.36519C33.6629 10.7747 35.0996 12.2836 36.4326 13.8819ZM45.3277 21.3751C44.5962 20.1075 43.8399 18.8879 43.0588 17.7166C45.1077 18.0693 47.1312 18.5566 49.1161 19.1755C48.6606 21.2031 48.0747 23.1991 47.3619 25.1511C46.7342 23.8887 46.0592 22.6263 45.33 21.3774M14.4881 15.0292C13.917 9.46456 15.0842 5.41306 17.6669 3.92028C18.4955 3.46336 19.4303 3.23426 20.3761 3.25632C22.9747 3.25632 26.2867 4.67457 29.8154 7.40267C27.5667 9.51767 25.5032 11.8213 23.6474 14.2884C20.5895 14.6622 17.5685 15.2938 14.6168 16.1764C14.5649 15.7902 14.5175 15.4086 14.4814 15.0292M11.2191 20.6886C11.5667 20.538 11.9212 20.3875 12.2824 20.2369C12.9926 23.2339 13.9555 26.1652 15.1609 28.9994C13.9532 31.8391 12.9895 34.7765 12.2802 37.7799C6.52765 35.4199 3.1931 32.1498 3.1931 28.9994C3.1931 26.0138 6.12805 22.9854 11.2191 20.6886ZM17.6669 54.0785C15.0842 52.5857 13.917 48.5342 14.4881 42.9696C14.5243 42.5902 14.5717 42.2085 14.6236 41.8201C17.5741 42.7087 20.5954 43.3426 23.6542 43.7148C25.5091 46.1813 27.571 48.4849 29.8176 50.6006C24.8982 54.4014 20.4032 55.6548 17.6737 54.0785M49.8046 42.9696C50.3691 48.5364 49.2086 52.5857 46.6236 54.0785C43.8964 55.6593 39.3991 54.4014 34.4819 50.6006C36.7278 48.4849 38.789 46.1813 40.6431 43.7148C43.7019 43.3428 46.7232 42.7089 49.6737 41.8201C49.7279 42.2085 49.773 42.5902 49.8114 42.9696M52.0194 37.7754C51.3081 34.7738 50.3436 31.8379 49.1364 28.9994C50.3431 26.1593 51.3068 23.2219 52.0171 20.2189C57.7584 22.5789 61.1019 25.849 61.1019 28.9994C61.1019 32.1498 57.7674 35.4199 52.0149 37.7799" fill="#087EA4"/>
</svg>
