<svg width="70" height="70" viewBox="0 0 70 70" fill="none" xmlns="http://www.w3.org/2000/svg">
<path d="M51.5606 29.4532C49.852 28.9212 48.9697 29.1006 47.1776 28.9066C44.4073 28.6073 43.3034 27.5349 42.8353 24.7748C42.5732 23.234 42.8826 20.9781 42.2137 19.5814C40.9344 16.9183 37.941 15.7239 34.9337 16.4056C32.3946 16.982 30.282 19.4955 30.1649 22.0755C30.0312 25.0212 31.7258 27.5347 34.6355 28.4021C36.0179 28.8149 37.4867 29.0227 38.9305 29.1281C41.5783 29.3193 41.7817 30.7771 42.498 31.9771C42.9495 32.7336 43.3871 33.4791 43.3871 35.7348C43.3871 37.9905 42.9467 38.736 42.498 39.4925C41.7817 40.6897 40.8982 41.4739 38.2504 41.6679C36.8067 41.7732 35.3351 41.9811 33.9554 42.394C31.0457 43.2641 29.3511 45.7747 29.4849 48.7205C29.602 51.3005 31.7146 53.814 34.2537 54.3904C37.261 55.0748 40.2544 53.8777 41.5336 51.2146C42.2053 49.8179 42.5732 48.2356 42.8353 46.6949C43.3063 43.9347 44.41 42.8623 47.1776 42.563C48.9697 42.369 50.8244 42.563 52.5038 41.618C54.2784 40.3337 55.8639 38.4061 55.8639 35.7348C55.8639 33.0633 54.1554 30.2625 51.5606 29.4532Z" fill="#F44250"/>
<path d="M23.136 41.9954C19.6438 41.9954 16.7951 39.1686 16.7951 35.7032C16.7951 32.2376 19.6438 29.4109 23.136 29.4109C26.6282 29.4109 29.4769 32.2376 29.4769 35.7032C29.4769 39.1658 26.6254 41.9954 23.136 41.9954Z" fill="#121212"/>
<path d="M11.4547 54.7827C7.96806 54.7744 5.12783 51.9365 5.1362 48.4681C5.14462 45.0056 8.00444 42.1872 11.4995 42.1982C14.9889 42.2066 17.8291 45.0445 17.818 48.5126C17.8095 51.9725 14.9497 54.791 11.4547 54.7827Z" fill="#121212"/>
<path d="M58.5704 54.7825C55.0727 54.8019 52.2018 51.9947 52.182 48.5376C52.1626 45.0667 54.9916 42.2178 58.4753 42.1982C61.973 42.1789 64.844 44.9862 64.8637 48.4433C64.8832 51.9113 62.0542 54.763 58.5704 54.7825Z" fill="#121212"/>
</svg>
