<svg width="64" height="42" viewBox="0 0 64 42" fill="none" xmlns="http://www.w3.org/2000/svg">
<path d="M49.6646 14.4881C47.8421 13.9151 46.901 14.1083 44.9894 13.8994C42.0344 13.5771 40.857 12.4222 40.3576 9.44977C40.0781 7.79046 40.4081 5.361 39.6946 3.85689C38.33 0.988933 35.1371 -0.297324 31.9293 0.436826C29.2209 1.05757 26.9675 3.76437 26.8426 6.5428C26.6999 9.71516 28.5075 12.422 31.6112 13.3561C33.0858 13.8007 34.6525 14.0245 36.1925 14.138C39.0168 14.3439 39.2338 15.9138 39.9979 17.2061C40.4795 18.0208 40.9462 18.8236 40.9462 21.2529C40.9462 23.6821 40.4765 24.4849 39.9979 25.2996C39.2338 26.5889 38.2914 27.4334 35.4671 27.6423C33.9271 27.7557 32.3574 27.9796 30.8858 28.4243C27.7821 29.3613 25.9745 32.0651 26.1172 35.2375C26.2421 38.0159 28.4956 40.7228 31.2039 41.3435C34.4117 42.0806 37.6047 40.7914 38.9692 37.9234C39.6857 36.4193 40.0781 34.7153 40.3576 33.056C40.86 30.0835 42.0373 28.9286 44.9894 28.6063C46.901 28.3974 48.8794 28.6063 50.6707 27.5886C52.5636 26.2055 54.2548 24.1297 54.2548 21.2529C54.2548 18.3759 52.4324 15.3596 49.6646 14.4881Z" fill="#F44250"/>
<path d="M19.3451 27.995C15.62 27.995 12.5814 24.9508 12.5814 21.2188C12.5814 17.4867 15.62 14.4425 19.3451 14.4425C23.0701 14.4425 26.1087 17.4867 26.1087 21.2188C26.1087 24.9478 23.0671 27.995 19.3451 27.995Z" fill="#121212"/>
<path d="M6.88501 41.766C3.16593 41.757 0.136349 38.7008 0.145283 34.9657C0.154258 31.2368 3.20474 28.2016 6.93276 28.2135C10.6548 28.2225 13.6844 31.2787 13.6725 35.0136C13.6635 38.7396 10.613 41.7749 6.88501 41.766Z" fill="#121212"/>
<path d="M57.1418 41.7658C53.4109 41.7867 50.3486 38.7635 50.3275 35.0405C50.3068 31.3026 53.3244 28.2346 57.0403 28.2135C60.7712 28.1927 63.8336 31.2159 63.8546 34.9389C63.8754 38.6737 60.8578 41.7448 57.1418 41.7658Z" fill="#121212"/>
</svg>
