<svg width="63" height="58" viewBox="0 0 63 58" fill="none" xmlns="http://www.w3.org/2000/svg">
<path d="M43.1047 40.5067C45.3927 40.2735 47.1285 38.3298 47.0496 35.9973C46.9707 33.6649 44.9983 31.7989 42.6313 31.7989H42.4735C40.0277 31.8767 38.1342 33.8981 38.2131 36.3083C38.292 37.4745 38.7653 38.4853 39.4754 39.185C36.7929 44.3941 32.6902 48.2037 26.5362 51.3914C22.3546 53.5684 18.0153 54.3458 13.6759 53.8016C10.1255 53.3351 7.3641 51.7802 5.62835 49.2145C3.10363 45.4048 2.86693 41.2842 4.99717 37.1635C6.49622 34.2091 8.86315 32.0322 10.3622 30.9437C10.0466 29.933 9.57323 28.2225 9.33654 26.9785C-2.10361 35.1421 -0.920151 46.1823 2.55134 51.3914C5.15496 55.2788 10.4411 57.689 16.2795 57.689C17.8575 57.689 19.4354 57.5335 21.0134 57.1448C31.1123 55.2011 38.7653 49.2922 43.1047 40.5067Z" fill="#764ABC"/>
<path d="M56.9907 30.866C50.9945 23.9464 42.1579 20.1367 32.059 20.1367H30.7967C30.0866 18.7373 28.5876 17.8043 26.9307 17.8043H26.7729C24.3271 17.882 22.4335 19.9035 22.5124 22.3137C22.5913 24.6461 24.5638 26.5121 26.9307 26.5121H27.0885C28.8242 26.4343 30.3233 25.3458 30.9545 23.8686H32.3746C38.3709 23.8686 44.0515 25.5791 49.1798 28.9223C53.1247 31.4879 55.965 34.8311 57.543 38.874C58.8842 42.1394 58.8053 45.3271 57.3852 48.0483C55.176 52.1689 51.4679 54.4236 46.5762 54.4236C43.4203 54.4236 40.4222 53.4906 38.8442 52.7909C37.9764 53.5684 36.3984 54.8123 35.2939 55.5898C38.6864 57.1448 42.1579 58 45.4716 58C53.0458 58 58.6475 53.8794 60.7778 49.7587C63.0658 45.2493 62.908 37.4745 56.9907 30.866Z" fill="#764ABC"/>
<path d="M16.9107 41.8284C16.9896 44.1609 18.962 46.0268 21.329 46.0268H21.4868C23.9326 45.9491 25.8261 43.9276 25.7472 41.5174C25.6683 39.185 23.6959 37.319 21.329 37.319H21.1712C21.0134 37.319 20.7767 37.319 20.6189 37.3968C17.3841 32.1099 16.0428 26.3566 16.5162 20.1367C16.8318 15.4719 18.4098 11.429 21.1712 8.08579C23.4592 5.20912 27.8775 3.80965 30.8756 3.7319C39.2387 3.57641 42.7891 13.8391 43.0258 17.9598C44.0515 18.193 45.7872 18.7373 46.9707 19.126C46.0239 6.53083 38.1342 0 30.56 0C23.4592 0 16.9107 5.05362 14.3071 12.5174C10.6778 22.4692 13.0447 32.0322 17.463 39.5737C17.0685 40.118 16.8318 40.9732 16.9107 41.8284Z" fill="#764ABC"/>
</svg>
