<svg width="70" height="70" viewBox="0 0 70 70" fill="none" xmlns="http://www.w3.org/2000/svg">
<path d="M47.1047 46.5067C49.3927 46.2735 51.1285 44.3298 51.0496 41.9973C50.9707 39.6649 48.9983 37.7989 46.6313 37.7989H46.4735C44.0277 37.8767 42.1342 39.8981 42.2131 42.3083C42.292 43.4745 42.7653 44.4853 43.4754 45.185C40.7929 50.3941 36.6902 54.2037 30.5362 57.3914C26.3546 59.5684 22.0153 60.3458 17.6759 59.8016C14.1255 59.3351 11.3641 57.7802 9.62835 55.2145C7.10363 51.4048 6.86693 47.2842 8.99717 43.1635C10.4962 40.2091 12.8631 38.0322 14.3622 36.9437C14.0466 35.933 13.5732 34.2225 13.3365 32.9785C1.89639 41.1421 3.07985 52.1823 6.55134 57.3914C9.15496 61.2788 14.4411 63.689 20.2795 63.689C21.8575 63.689 23.4354 63.5335 25.0134 63.1448C35.1123 61.2011 42.7653 55.2922 47.1047 46.5067Z" fill="#764ABC"/>
<path d="M60.9907 36.866C54.9945 29.9464 46.1579 26.1367 36.059 26.1367H34.7967C34.0866 24.7373 32.5876 23.8043 30.9307 23.8043H30.7729C28.3271 23.882 26.4335 25.9035 26.5124 28.3137C26.5913 30.6461 28.5638 32.5121 30.9307 32.5121H31.0885C32.8242 32.4343 34.3233 31.3458 34.9545 29.8686H36.3746C42.3709 29.8686 48.0515 31.5791 53.1798 34.9223C57.1247 37.4879 59.965 40.8311 61.543 44.874C62.8842 48.1394 62.8053 51.3271 61.3852 54.0483C59.176 58.1689 55.4679 60.4236 50.5762 60.4236C47.4203 60.4236 44.4222 59.4906 42.8442 58.7909C41.9764 59.5684 40.3984 60.8123 39.2939 61.5898C42.6864 63.1448 46.1579 64 49.4716 64C57.0458 64 62.6475 59.8794 64.7778 55.7587C67.0658 51.2493 66.908 43.4745 60.9907 36.866Z" fill="#764ABC"/>
<path d="M20.9107 47.8284C20.9896 50.1609 22.962 52.0268 25.329 52.0268H25.4868C27.9326 51.9491 29.8261 49.9276 29.7472 47.5174C29.6683 45.185 27.6959 43.319 25.329 43.319H25.1712C25.0134 43.319 24.7767 43.319 24.6189 43.3968C21.3841 38.1099 20.0428 32.3566 20.5162 26.1367C20.8318 21.4719 22.4098 17.429 25.1712 14.0858C27.4592 11.2091 31.8775 9.80965 34.8756 9.7319C43.2387 9.57641 46.7891 19.8391 47.0258 23.9598C48.0515 24.193 49.7872 24.7373 50.9707 25.126C50.0239 12.5308 42.1342 6 34.56 6C27.4592 6 20.9107 11.0536 18.3071 18.5174C14.6778 28.4692 17.0447 38.0322 21.463 45.5737C21.0685 46.118 20.8318 46.9732 20.9107 47.8284Z" fill="#764ABC"/>
</svg>
