<svg width="70" height="70" viewBox="0 0 70 70" fill="none" xmlns="http://www.w3.org/2000/svg">
<path d="M56.6588 38.2853C54.7748 38.2878 52.916 38.7202 51.2229 39.5497C50.6928 38.6668 50.2835 37.7165 50.0059 36.7241C49.8464 35.9462 49.8096 35.148 49.8967 34.3587C50.0798 33.4901 50.3174 32.6339 50.608 31.7954C50.5973 31.6857 50.4773 31.1674 49.271 31.1502C48.0647 31.133 47.0255 31.3803 46.9141 31.7007C46.7046 32.286 46.5363 32.8852 46.4106 33.4942C45.4122 35.9661 44.1833 38.3377 42.7403 40.5776C41.9318 39.2474 41.5992 37.6803 41.7975 36.1349C41.9807 35.2663 42.2182 34.4101 42.5088 33.5716C42.4981 33.4619 42.3782 32.9437 41.1718 32.9265C39.9655 32.9093 38.9263 33.1565 38.8149 33.477C38.7035 33.7974 38.5621 34.5522 38.3114 35.2704C38.0607 35.9886 35.1339 42.5517 34.3668 44.244C33.9726 45.1042 33.6319 45.8052 33.3919 46.2783C33.3805 46.309 33.3661 46.3386 33.349 46.3664C33.1348 46.7729 33.0212 46.9944 33.0212 46.9944V47.0051C32.8562 47.3019 32.6806 47.5771 32.5927 47.5771C32.4395 46.9627 32.4468 46.3191 32.6141 45.7084C33.0427 43.4312 34.0925 39.8916 34.0818 39.7691C34.0818 39.7024 34.2789 39.0874 33.4026 38.7691C33.1994 38.672 32.9711 38.6405 32.7493 38.6791C32.5276 38.7176 32.3231 38.8242 32.1642 38.9841C32.087 38.9841 32.0334 39.1712 32.0334 39.1712C32.0334 39.1712 32.9869 35.1908 30.2144 35.1908C29.1346 35.4088 28.1094 35.8413 27.1986 36.4628C26.2879 37.0843 25.5102 37.8823 24.9114 38.8099C24.1657 39.2163 22.578 40.0851 20.8789 41.0206C20.2361 41.384 19.5633 41.7474 18.9398 42.0958C18.897 42.0528 18.852 41.9969 18.8091 41.9539C15.4344 38.3454 9.23151 35.7994 9.49934 30.9717C9.5979 29.2128 10.2 24.5936 21.4103 18.9833C30.6365 14.4201 37.9793 15.6846 39.2499 18.4887C41.069 22.4927 35.316 29.9266 25.7834 31.004C24.7288 31.2187 23.6396 31.1928 22.5963 30.9282C21.5531 30.6635 20.5824 30.1669 19.7561 29.475C19.2526 28.9245 19.1755 28.8923 18.9891 29.002C18.6826 29.1676 18.8799 29.6621 18.9891 29.9481C19.3527 30.6087 19.8446 31.1893 20.4356 31.6558C21.0267 32.1223 21.7049 32.4651 22.4302 32.6641C26.1803 33.4774 30.0901 33.0885 33.6083 31.5524C39.3934 29.3095 43.893 23.0733 42.5731 17.85C41.2468 12.5493 32.4812 10.801 24.185 13.7643C18.9886 15.5191 14.1871 18.2833 10.0543 21.8992C5.48404 26.1892 4.76197 29.9159 5.05765 31.4792C6.12897 37.0229 13.7375 40.6292 16.7821 43.3064C16.6279 43.3946 16.4865 43.472 16.3665 43.5365C14.8431 44.2956 9.03653 47.3428 7.58168 50.564C5.93828 54.2197 7.84523 56.8325 9.10509 57.1851C11.0035 57.6412 12.9964 57.491 14.8056 56.7554C16.6149 56.0199 18.1501 54.7357 19.1969 53.0822C20.0884 51.7106 20.6364 50.1432 20.7942 48.5134C20.952 46.8836 20.715 45.2396 20.1032 43.7215C20.0929 43.6969 20.0784 43.6744 20.0604 43.6548L21.2538 42.9516C22.0316 42.4893 22.7987 42.0613 23.4565 41.7087C23.0104 42.9999 22.7486 44.3479 22.6787 45.7128C22.5272 47.8045 23.1651 49.8771 24.4657 51.5188C24.6636 51.6898 24.8933 51.8196 25.1416 51.9008C25.3899 51.982 25.6516 52.013 25.9119 51.9919C27.1975 51.9919 27.7868 50.9167 28.4317 49.6394C29.2201 48.0782 29.9315 46.2633 29.9315 46.2633C29.9315 46.2633 29.0445 51.1683 31.455 51.1683C32.3313 51.1683 33.2184 50.0243 33.6147 49.448V49.4588C33.6147 49.4588 33.6361 49.4265 33.6811 49.3491L33.8226 49.119V49.0975C34.1739 48.4824 34.9624 47.0847 36.1344 44.7644C37.6472 41.7732 39.1042 38.0337 39.1042 38.0337C39.2447 38.8555 39.4387 39.6672 39.6849 40.4636C40.0377 41.429 40.4551 42.3695 40.934 43.2785C40.5826 43.7731 40.364 44.0484 40.364 44.0484L40.3748 44.0591C40.0898 44.4333 39.7834 44.8397 39.4427 45.2354C38.4291 46.3538 37.4887 47.5368 36.6273 48.7771C36.4993 48.9854 36.4553 49.2349 36.5042 49.4746C36.5532 49.7143 36.6915 49.9263 36.8908 50.0673C37.3419 50.3029 37.856 50.388 38.3585 50.3103C39.1158 50.2674 39.8605 50.0966 40.5612 49.8049C41.2382 49.5658 41.8771 49.2289 42.4574 48.805C43.0557 48.389 43.5373 47.8255 43.8558 47.1688C44.1744 46.5119 44.3193 45.7839 44.2765 45.0547C44.2091 44.1361 43.9753 43.2376 43.5865 42.4033C43.6959 42.2484 43.8009 42.0958 43.9037 41.941C45.1218 40.1161 46.2198 38.2132 47.1905 36.2446C47.3311 37.0664 47.525 37.8781 47.7712 38.6745C48.0622 39.5087 48.4205 40.3178 48.8424 41.0937C47.4411 42.1758 46.3372 43.5981 45.6349 45.2268C44.945 47.2287 45.4807 48.1298 46.492 48.3384C47.0454 48.3766 47.5987 48.2629 48.0925 48.0093C48.8186 47.7699 49.5026 47.4172 50.1195 46.9642C50.7699 46.579 51.3146 46.0375 51.7047 45.3885C52.0949 44.7395 52.318 44.0033 52.3542 43.2462C52.3056 42.4905 52.1356 41.7477 51.8507 41.0463C53.7001 40.3213 55.7052 40.0901 57.6701 40.3755C62.8854 40.9904 63.9159 44.2569 63.7188 45.6332C63.6264 46.121 63.4309 46.5834 63.1456 46.9892C62.8603 47.395 62.4917 47.7347 62.0647 47.9857C61.7026 48.2158 61.5826 48.2932 61.6148 48.4588C61.6576 48.7018 61.829 48.6889 62.1397 48.6459C62.9257 48.4007 63.6192 47.9222 64.1287 47.2733C64.6382 46.6245 64.9398 45.836 64.9937 45.0117C65.1587 41.7861 62.0904 38.2487 56.6652 38.2809L56.6588 38.2853ZM16.42 51.893C14.6889 53.7853 12.2783 54.4993 11.237 53.895C10.1186 53.2499 10.5578 50.4544 12.6833 48.4502C13.9441 47.3111 15.3069 46.291 16.7544 45.4031C17.0071 45.2483 17.3799 45.0289 17.8256 44.7579L17.9456 44.6913L18.2092 44.5257C18.5889 45.8027 18.6234 47.1579 18.3089 48.4526C17.9945 49.7472 17.3426 50.9347 16.42 51.893ZM29.0209 43.2914C28.4188 44.7644 27.159 48.5383 26.3919 48.3276C25.7341 48.1513 25.3206 45.2913 26.2612 42.4656C26.7361 41.1054 27.4279 39.8316 28.3096 38.6938C29.2524 37.638 30.2936 37.2853 30.5443 37.7154C30.3156 39.6397 29.8021 41.5191 29.0209 43.2914ZM39.4192 48.2846C39.1663 48.4158 38.9263 48.4997 38.8171 48.4394C38.7399 48.3964 38.9263 48.2244 38.9263 48.2244C38.9263 48.2244 40.2312 46.8159 40.7454 46.1794C41.0411 45.8052 41.3882 45.3665 41.7654 44.8697V45.0117C41.7654 46.6933 40.1433 47.8266 39.4213 48.289L39.4192 48.2846ZM47.4412 46.4482C47.2547 46.317 47.2869 45.8762 47.9125 44.5021C48.3476 43.6196 48.9553 42.8341 49.6996 42.1925C49.8136 42.5181 49.8729 42.8603 49.8752 43.2053C49.8836 43.9398 49.6497 44.6565 49.2098 45.2434C48.7698 45.8304 48.1487 46.2548 47.4433 46.4503L47.4412 46.4482Z" fill="#CD6799"/>
</svg>
