<svg width="68" height="52" viewBox="0 0 68 52" fill="none" xmlns="http://www.w3.org/2000/svg">
<path d="M58.5466 29.7138C56.4114 29.7166 54.3048 30.2054 52.386 31.1431C51.7852 30.1451 51.3213 29.0708 51.0067 27.949C50.8259 27.0696 50.7842 26.1673 50.8829 25.275C51.0904 24.2931 51.3597 23.3253 51.6891 22.3774C51.6769 22.2534 51.5409 21.6675 50.1738 21.6481C48.8066 21.6286 47.6289 21.9082 47.5026 22.2704C47.2652 22.932 47.0745 23.6094 46.932 24.2978C45.8005 27.0921 44.4077 29.7731 42.7723 32.3051C41.856 30.8014 41.4791 29.0299 41.7038 27.2829C41.9114 26.301 42.1806 25.3332 42.51 24.3853C42.4979 24.2613 42.3619 23.6755 40.9947 23.656C39.6276 23.6366 38.4498 23.9161 38.3236 24.2783C38.1973 24.6405 38.037 25.4938 37.7529 26.3057C37.4688 27.1176 34.1517 34.5367 33.2824 36.4498C32.8356 37.4221 32.4495 38.2146 32.1775 38.7494C32.1646 38.7841 32.1483 38.8175 32.1289 38.849C31.8861 39.3085 31.7574 39.5589 31.7574 39.5589V39.571C31.5704 39.9065 31.3713 40.2176 31.2717 40.2176C31.0981 39.5231 31.1064 38.7955 31.296 38.1052C31.7817 35.5309 32.9715 31.5296 32.9594 31.3911C32.9594 31.3157 33.1828 30.6205 32.1896 30.2607C31.9593 30.151 31.7006 30.1154 31.4492 30.159C31.1979 30.2025 30.9662 30.323 30.7861 30.5038C30.6986 30.5038 30.6379 30.7153 30.6379 30.7153C30.6379 30.7153 31.7185 26.2157 28.5763 26.2157C27.3526 26.4621 26.1906 26.951 25.1584 27.6536C24.1263 28.3562 23.2449 29.2583 22.5662 30.3069C21.7211 30.7663 19.9217 31.7484 17.9961 32.8059C17.2676 33.2167 16.5051 33.6275 15.7984 34.0213C15.7499 33.9727 15.6989 33.9095 15.6503 33.8609C11.8257 29.7818 4.79571 26.9037 5.09925 21.4463C5.21095 19.4579 5.89331 14.2363 18.5983 7.89413C29.0547 2.73579 37.3765 4.16516 38.8165 7.33503C40.8782 11.8613 34.3581 20.2649 23.5545 21.4828C22.3593 21.7255 21.1249 21.6962 19.9425 21.3971C18.7602 21.0979 17.6601 20.5365 16.7236 19.7544C16.153 19.1321 16.0656 19.0957 15.8543 19.2196C15.507 19.4068 15.7305 19.9659 15.8543 20.2892C16.2664 21.0359 16.8239 21.6923 17.4937 22.2196C18.1636 22.7469 18.9322 23.1345 19.7542 23.3594C24.0043 24.2788 28.4355 23.8392 32.4227 22.1027C38.9792 19.5673 44.0787 12.5177 42.5828 6.61306C41.0797 0.620923 31.1454 -1.35539 21.743 1.99437C15.8537 3.97816 10.412 7.10289 5.72819 11.1904C0.548575 16.04 -0.269771 20.2528 0.0653378 22.02C1.2795 28.2868 9.90248 32.3634 13.3531 35.3899C13.1783 35.4896 13.018 35.5771 12.882 35.65C11.1555 36.5081 4.57473 39.9527 2.9259 43.5941C1.06338 47.7266 3.22459 50.6802 4.65244 51.0788C6.80395 51.5944 9.06258 51.4246 11.113 50.5931C13.1635 49.7616 14.9034 48.3099 16.0898 46.4407C17.1002 44.8903 17.7212 43.1184 17.9001 41.276C18.0789 39.4336 17.8103 37.5752 17.117 35.8591C17.1053 35.8313 17.0889 35.8058 17.0685 35.7837L18.421 34.9888C19.3025 34.4662 20.1719 33.9824 20.9174 33.5837C20.4118 35.0434 20.1151 36.5672 20.0359 38.1101C19.8642 40.4747 20.5871 42.8176 22.0611 44.6734C22.2854 44.8667 22.5457 45.0135 22.8271 45.1053C23.1085 45.1971 23.4052 45.2321 23.7002 45.2082C25.1572 45.2082 25.825 43.9928 26.5559 42.5489C27.4495 40.784 28.2557 38.7324 28.2557 38.7324C28.2557 38.7324 27.2504 44.2772 29.9823 44.2772C30.9755 44.2772 31.9808 42.984 32.43 42.3325V42.3447C32.43 42.3447 32.4543 42.3082 32.5053 42.2207L32.6656 41.9606V41.9363C33.0638 41.241 33.9574 39.661 35.2857 37.038C37.0001 33.6567 38.6514 29.4294 38.6514 29.4294C38.8107 30.3584 39.0305 31.276 39.3095 32.1763C39.7094 33.2676 40.1824 34.3307 40.7252 35.3583C40.3269 35.9174 40.0792 36.2286 40.0792 36.2286L40.0914 36.2407C39.7684 36.6637 39.4212 37.1231 39.0351 37.5704C37.8863 38.8347 36.8205 40.172 35.8443 41.5741C35.6992 41.8096 35.6493 42.0916 35.7048 42.3626C35.7603 42.6336 35.917 42.8732 36.1429 43.0326C36.6541 43.2989 37.2368 43.3951 37.8063 43.3073C38.6646 43.2588 39.5086 43.0657 40.3027 42.736C41.07 42.4657 41.794 42.0849 42.4517 41.6057C43.1298 41.1354 43.6756 40.4984 44.0366 39.756C44.3977 39.0135 44.5619 38.1905 44.5134 37.3662C44.437 36.3278 44.172 35.3121 43.7314 34.3689C43.8553 34.1939 43.9743 34.0213 44.0908 33.8463C45.4714 31.7834 46.7158 29.6323 47.8159 27.4069C47.9752 28.3359 48.195 29.2535 48.474 30.1538C48.8038 31.0968 49.2099 32.0114 49.6881 32.8885C48.0999 34.1118 46.8488 35.7196 46.0529 37.5607C45.271 39.8238 45.8781 40.8424 47.0243 41.0782C47.6514 41.1214 48.2785 40.9929 48.8382 40.7062C49.6611 40.4355 50.4363 40.0368 51.1354 39.5248C51.8725 39.0893 52.4899 38.4772 52.932 37.7435C53.3742 37.0099 53.6271 36.1777 53.6681 35.3218C53.613 34.4675 53.4203 33.6278 53.0975 32.835C55.1934 32.0154 57.4659 31.754 59.6928 32.0766C65.6034 32.7718 66.7714 36.4643 66.548 38.0201C66.4432 38.5716 66.2217 39.0943 65.8983 39.553C65.575 40.0117 65.1573 40.3958 64.6733 40.6795C64.2629 40.9396 64.1269 41.0271 64.1634 41.2143C64.2119 41.489 64.4062 41.4744 64.7583 41.4258C65.6491 41.1486 66.4351 40.6077 67.0125 39.8742C67.59 39.1408 67.9318 38.2494 67.9928 37.3176C68.1798 33.6713 64.7024 29.6724 58.5539 29.7089L58.5466 29.7138ZM12.9427 45.0964C10.9807 47.2356 8.24879 48.0427 7.06862 47.3596C5.80104 46.6303 6.29884 43.4702 8.70774 41.2046C10.1367 39.9169 11.6812 38.7638 13.3216 37.76C13.6081 37.585 14.0306 37.337 14.5357 37.0307L14.6717 36.9554L14.9704 36.7682C15.4007 38.2117 15.4398 39.7437 15.0834 41.2073C14.7271 42.6708 13.9883 44.0131 12.9427 45.0964ZM27.2237 35.3729C26.5413 37.038 25.1135 41.3042 24.2442 41.066C23.4987 40.8667 23.03 37.6336 24.096 34.4394C24.6343 32.9018 25.4183 31.4618 26.4175 30.1756C27.486 28.9821 28.6661 28.5834 28.9502 29.0696C28.691 31.2449 28.1091 33.3694 27.2237 35.3729ZM39.0084 41.0174C38.7218 41.1657 38.4498 41.2605 38.326 41.1924C38.2386 41.1438 38.4498 40.9493 38.4498 40.9493C38.4498 40.9493 39.9287 39.3571 40.5115 38.6376C40.8466 38.2146 41.24 37.7187 41.6674 37.1571V37.3176C41.6674 39.2185 39.8291 40.4996 39.0108 41.0223L39.0084 41.0174ZM48.1 38.9414C47.8887 38.7931 47.9252 38.2948 48.6342 36.7415C49.1273 35.7439 49.816 34.8559 50.6595 34.1307C50.7887 34.4987 50.856 34.8856 50.8586 35.2756C50.8681 36.1059 50.603 36.916 50.1044 37.5795C49.6058 38.2431 48.9019 38.7228 48.1024 38.9438L48.1 38.9414Z" fill="#CD6799"/>
</svg>
