<svg width="70" height="70" viewBox="0 0 70 70" fill="none" xmlns="http://www.w3.org/2000/svg">
<path d="M62.7975 6.83203H25.3345V25.9453H43.7681C44.4248 25.9453 44.9575 26.4874 44.9575 27.1557V45.6538H63.9871V8.04459C63.9876 7.7232 63.8625 7.41478 63.6394 7.18732C63.4163 6.95985 63.1133 6.83203 62.7975 6.83203Z" fill="#8E75FF"/>
<path d="M25.1825 6.83203V25.9453H7.60783C7.36633 25.9449 7.14898 25.7961 7.05748 25.5687C6.96599 25.3413 7.01845 25.0802 7.19032 24.9075L25.1825 6.83203ZM45.8211 63.7492C45.65 63.9202 45.3948 63.9702 45.1736 63.876C44.9523 63.7817 44.8082 63.5617 44.8078 63.3177V45.6538H63.8372L45.8211 63.7469V63.7492Z" fill="#D1C7FF"/>
<path d="M25.1825 25.9453H44.2142C44.5403 25.9453 44.8078 26.2152 44.8078 26.5494L44.8078 45.6538H26.3742C25.7173 45.6538 25.1847 45.1119 25.1847 44.4434V25.9453H25.1825Z" fill="#D1C7FF"/>
</svg>
