<svg width="56" height="57" viewBox="0 0 56 57" fill="none" xmlns="http://www.w3.org/2000/svg">
<path d="M54.8186 0.817688H18.0128V19.6014H36.123C36.7682 19.6014 37.2916 20.1342 37.2916 20.7909V38.9701H55.9873V2.00934C55.9878 1.69349 55.8649 1.39039 55.6457 1.16685C55.4265 0.943305 55.1289 0.817688 54.8186 0.817688Z" fill="#8E75FF"/>
<path d="M17.8635 0.817688V19.6014H0.59717C0.359906 19.601 0.146364 19.4548 0.0564733 19.2313C-0.0334171 19.0078 0.0181258 18.7512 0.186982 18.5815L17.8635 0.817688ZM38.14 56.7535C37.9719 56.9216 37.7212 56.9707 37.5039 56.8781C37.2865 56.7855 37.1449 56.5693 37.1445 56.3295V38.9701H55.8401L38.14 56.7513V56.7535Z" fill="#D1C7FF"/>
<path d="M17.8635 19.6014L36.5613 19.6014C36.8817 19.6014 37.1445 19.8667 37.1445 20.1951L37.1445 38.9701L19.0343 38.9701C18.3889 38.9701 17.8657 38.4376 17.8657 37.7806V19.6014L17.8635 19.6014Z" fill="#D1C7FF"/>
</svg>
