<svg width="70" height="70" viewBox="0 0 70 70" fill="none" xmlns="http://www.w3.org/2000/svg">
<path d="M35 17C26.7334 17 21.5666 21.0001 19.5 29C22.6 24.9999 26.2166 23.4999 30.35 24.5C32.7082 25.0705 34.3938 26.7263 36.2596 28.5589C39.2991 31.5446 42.8166 35 50.5 35C58.7666 35 63.9334 30.9999 66 23C62.9 27.0001 59.2834 28.5001 55.15 27.5C52.7918 26.9295 51.1062 25.2737 49.2404 23.4411C46.2009 20.4554 42.6834 17 35 17ZM19.5 35C11.2334 35 6.06659 39.0001 4 47C7.1 42.9999 10.7166 41.4999 14.85 42.5C17.2082 43.0705 18.8938 44.7263 20.7596 46.5589C23.7991 49.5446 27.3166 53 35 53C43.2666 53 48.4334 48.9999 50.5 41C47.4 45.0001 43.7834 46.5001 39.65 45.5C37.2918 44.9295 35.6062 43.2737 33.7404 41.4411C30.7009 38.4554 27.1834 35 19.5 35Z" fill="url(#paint0_linear_205_390)"/>
<defs>
<linearGradient id="paint0_linear_205_390" x1="-436.924" y1="1786.47" x2="-264.903" y2="3781.11" gradientUnits="userSpaceOnUse">
<stop stop-color="#2298BD"/>
<stop offset="1" stop-color="#0ED7B5"/>
</linearGradient>
</defs>
</svg>
