<svg width="59" height="58" viewBox="0 0 59 58" fill="none" xmlns="http://www.w3.org/2000/svg">
<path d="M55.4275 0H2.86298C1.36203 0 0.145264 1.21676 0.145264 2.71771V55.2823C0.145264 56.7832 1.36203 58 2.86298 58H55.4275C56.9285 58 58.1453 56.7832 58.1453 55.2823V2.71771C58.1453 1.21676 56.9285 0 55.4275 0Z" fill="#3178C6"/>
<path fill-rule="evenodd" clip-rule="evenodd" d="M33.7956 45.0722V51.4274C34.9503 51.9973 36.1809 52.3984 37.4496 52.6184C38.9158 52.8891 40.404 53.0222 41.8949 53.0161C43.348 53.023 44.7977 52.8765 46.2201 52.5791C47.4971 52.321 48.7155 51.8295 49.814 51.1291C50.8338 50.4708 51.6744 49.5697 52.2603 48.5066C53.3098 46.3054 53.4482 43.779 52.6456 41.4762C52.3069 40.6151 51.8023 39.8289 51.1604 39.1624C50.4714 38.4537 49.6888 37.8425 48.8342 37.3458C47.8504 36.7696 46.8281 36.2616 45.7747 35.8254C44.9461 35.4815 44.2004 35.1473 43.5376 34.8228C42.9488 34.5409 42.3854 34.2089 41.8535 33.8306C41.4369 33.5385 41.0751 33.1753 40.7846 32.7576C40.5337 32.3783 40.403 31.9321 40.4097 31.4774C40.4042 31.0589 40.5208 30.6479 40.7453 30.2946C40.9891 29.9249 41.3143 29.616 41.6961 29.3915C42.1627 29.1168 42.6705 28.9188 43.1999 28.8053C43.8499 28.6609 44.5144 28.5914 45.1802 28.5981C45.7402 28.6001 46.2994 28.6402 46.8539 28.7183C47.4527 28.7992 48.0452 28.9218 48.6271 29.0849C49.2189 29.249 49.7977 29.4567 50.3588 29.7064C50.9032 29.949 51.424 30.2417 51.9144 30.5805V24.65C50.8934 24.2637 49.8346 23.986 48.7555 23.8214C47.4523 23.6318 46.1366 23.5425 44.8198 23.5542C43.3804 23.5465 41.9452 23.7099 40.5443 24.041C39.2782 24.3303 38.0742 24.8446 36.9898 25.5594C35.9824 26.2304 35.1506 27.1333 34.5641 28.1921C33.9426 29.368 33.6351 30.6844 33.6713 32.0139C33.6254 33.7721 34.2046 35.4896 35.3057 36.8611C36.6567 38.3817 38.3602 39.5475 40.2668 40.2561C41.1368 40.6152 41.9481 40.9666 42.7007 41.3105C43.3798 41.6127 44.0324 41.9709 44.652 42.3814C45.1517 42.7065 45.5906 43.1166 45.9487 43.5932C46.2636 44.0255 46.4307 44.5478 46.4251 45.0826C46.428 45.4833 46.3251 45.8777 46.1268 46.226C45.9066 46.6003 45.597 46.9141 45.2258 47.1395C44.7613 47.4227 44.2531 47.6271 43.7219 47.7444C43.0299 47.8991 42.3222 47.9721 41.6132 47.9619C40.2218 47.9593 38.8416 47.714 37.5346 47.2369C36.1691 46.7441 34.9028 46.011 33.7956 45.0722ZM23.1195 29.2506H31.4052V24.0161H8.30255V29.2506H16.551V52.5625H23.1195V29.2506Z" fill="white"/>
</svg>
