<svg width="70" height="70" viewBox="0 0 70 70" fill="none" xmlns="http://www.w3.org/2000/svg">
<path d="M61.4275 6H8.86298C7.36203 6 6.14526 7.21676 6.14526 8.71771V61.2823C6.14526 62.7832 7.36203 64 8.86298 64H61.4275C62.9285 64 64.1453 62.7832 64.1453 61.2823V8.71771C64.1453 7.21676 62.9285 6 61.4275 6Z" fill="#3178C6"/>
<path fill-rule="evenodd" clip-rule="evenodd" d="M39.7956 51.0722V57.4274C40.9503 57.9973 42.1809 58.3984 43.4496 58.6184C44.9158 58.8891 46.404 59.0222 47.8949 59.0161C49.348 59.023 50.7977 58.8765 52.2201 58.5791C53.4971 58.321 54.7155 57.8295 55.814 57.1291C56.8338 56.4708 57.6744 55.5697 58.2603 54.5066C59.3098 52.3054 59.4482 49.779 58.6456 47.4762C58.3069 46.6151 57.8023 45.8289 57.1604 45.1624C56.4714 44.4537 55.6888 43.8425 54.8342 43.3458C53.8504 42.7696 52.8281 42.2616 51.7747 41.8254C50.9461 41.4815 50.2004 41.1473 49.5376 40.8228C48.9488 40.5409 48.3854 40.2089 47.8535 39.8306C47.4369 39.5385 47.0751 39.1753 46.7846 38.7576C46.5337 38.3783 46.403 37.9321 46.4097 37.4774C46.4042 37.0589 46.5208 36.6479 46.7453 36.2946C46.9891 35.9249 47.3143 35.616 47.6961 35.3915C48.1627 35.1168 48.6705 34.9188 49.1999 34.8053C49.8499 34.6609 50.5144 34.5914 51.1802 34.5981C51.7402 34.6001 52.2994 34.6402 52.8539 34.7183C53.4527 34.7992 54.0452 34.9218 54.6271 35.0849C55.2189 35.249 55.7977 35.4567 56.3588 35.7064C56.9032 35.949 57.424 36.2417 57.9144 36.5805V30.65C56.8934 30.2637 55.8346 29.986 54.7555 29.8214C53.4523 29.6318 52.1366 29.5425 50.8198 29.5542C49.3804 29.5465 47.9452 29.7099 46.5443 30.041C45.2782 30.3303 44.0742 30.8446 42.9898 31.5594C41.9824 32.2304 41.1506 33.1333 40.5641 34.1921C39.9426 35.368 39.6351 36.6844 39.6713 38.0139C39.6254 39.7721 40.2046 41.4896 41.3057 42.8611C42.6567 44.3817 44.3602 45.5475 46.2668 46.2561C47.1368 46.6152 47.9481 46.9666 48.7007 47.3105C49.3798 47.6127 50.0324 47.9709 50.652 48.3814C51.1517 48.7065 51.5906 49.1166 51.9487 49.5932C52.2636 50.0255 52.4307 50.5478 52.4251 51.0826C52.428 51.4833 52.3251 51.8777 52.1268 52.226C51.9066 52.6003 51.597 52.9141 51.2258 53.1395C50.7613 53.4227 50.2531 53.6271 49.7219 53.7444C49.0299 53.8991 48.3222 53.9721 47.6132 53.9619C46.2218 53.9593 44.8416 53.714 43.5346 53.2369C42.1691 52.7441 40.9028 52.011 39.7956 51.0722ZM29.1195 35.2506H37.4052V30.0161H14.3026V35.2506H22.551V58.5625H29.1195V35.2506Z" fill="white"/>
</svg>
