<svg width="58" height="59" viewBox="0 0 58 59" fill="none" xmlns="http://www.w3.org/2000/svg">
<path d="M57.8081 9.45545L30.5626 58.1139C30 59.1185 28.5548 59.1245 27.9838 58.1247L0.198113 9.46013C-0.423925 8.37068 0.508849 7.05105 1.74496 7.27172L29.0196 12.1408C29.1936 12.1718 29.3718 12.1715 29.5457 12.1399L56.25 7.2787C57.482 7.05444 58.4192 8.36385 57.8081 9.45545Z" fill="url(#paint0_linear_30_49)"/>
<path d="M42.012 0.885251L21.8495 4.83105C21.5181 4.8959 21.2728 5.17638 21.2528 5.51299L20.0125 26.4339C19.9834 26.9267 20.4365 27.3091 20.918 27.1982L26.5315 25.9043C27.0567 25.7833 27.5313 26.2453 27.4234 26.7729L25.7556 34.9294C25.6434 35.4783 26.1594 35.9477 26.6962 35.7849L30.1634 34.7328C30.7009 34.5699 31.2174 35.0406 31.1036 35.59L28.4532 48.4021C28.2874 49.2035 29.3547 49.6405 29.7998 48.9534L30.0972 48.4945L46.5267 15.7477C46.8018 15.1994 46.3274 14.5742 45.7244 14.6904L39.9462 15.8042C39.4032 15.9088 38.9412 15.4037 39.0945 14.8732L42.8658 1.81584C43.0192 1.28436 42.5556 0.778886 42.012 0.885251Z" fill="url(#paint1_linear_30_49)"/>
<defs>
<linearGradient id="paint0_linear_30_49" x1="-0.480296" y1="-1.05538" x2="38.6506" y2="46.3046" gradientUnits="userSpaceOnUse">
<stop stop-color="#41D1FF"/>
<stop offset="1" stop-color="#BD34FE"/>
</linearGradient>
<linearGradient id="paint1_linear_30_49" x1="27.4542" y1="1.95653" x2="33.5731" y2="43.9845" gradientUnits="userSpaceOnUse">
<stop stop-color="#FFEA83"/>
<stop offset="0.0833333" stop-color="#FFDD35"/>
<stop offset="1" stop-color="#FFA800"/>
</linearGradient>
</defs>
</svg>
