<svg width="70" height="70" viewBox="0 0 70 70" fill="none" xmlns="http://www.w3.org/2000/svg">
<path d="M63.8081 14.4555L36.5626 63.1139C36 64.1185 34.5548 64.1245 33.9838 63.1247L6.19811 14.4601C5.57607 13.3707 6.50885 12.051 7.74496 12.2717L35.0196 17.1408C35.1936 17.1718 35.3718 17.1715 35.5457 17.1399L62.25 12.2787C63.482 12.0544 64.4192 13.3639 63.8081 14.4555Z" fill="url(#paint0_linear_77_1720)"/>
<path d="M48.012 5.88525L27.8495 9.83105C27.5181 9.8959 27.2728 10.1764 27.2528 10.513L26.0125 31.4339C25.9834 31.9267 26.4365 32.3091 26.918 32.1982L32.5315 30.9043C33.0567 30.7833 33.5313 31.2453 33.4234 31.7729L31.7556 39.9294C31.6434 40.4783 32.1594 40.9477 32.6962 40.7849L36.1634 39.7328C36.7009 39.5699 37.2174 40.0406 37.1036 40.59L34.4532 53.4021C34.2874 54.2035 35.3547 54.6405 35.7998 53.9534L36.0972 53.4945L52.5267 20.7477C52.8018 20.1994 52.3274 19.5742 51.7244 19.6904L45.9462 20.8042C45.4032 20.9088 44.9412 20.4037 45.0945 19.8732L48.8658 6.81584C49.0192 6.28436 48.5556 5.77889 48.012 5.88525Z" fill="url(#paint1_linear_77_1720)"/>
<defs>
<linearGradient id="paint0_linear_77_1720" x1="-0.579666" y1="-11.2582" x2="53.3008" y2="46.784" gradientUnits="userSpaceOnUse">
<stop stop-color="#41D1FF"/>
<stop offset="1" stop-color="#BD34FE"/>
</linearGradient>
<linearGradient id="paint1_linear_77_1720" x1="33.4543" y1="6.95653" x2="39.5732" y2="48.9845" gradientUnits="userSpaceOnUse">
<stop stop-color="#FFEA83"/>
<stop offset="0.0833333" stop-color="#FFDD35"/>
<stop offset="1" stop-color="#FFA800"/>
</linearGradient>
</defs>
</svg>
