<svg width="70" height="70" viewBox="0 0 70 70" fill="none" xmlns="http://www.w3.org/2000/svg">
<path d="M35 1L66 18.2471V52.7529L35 70L4 52.7529V18.2471L35 1Z" fill="white"/>
<path d="M60.4668 51.5563L36.0294 65.1676V54.5823L51.2604 46.3327L60.4668 51.5563ZM62.1396 50.072V21.6298L53.2023 26.7039V44.998L62.1396 50.072ZM9.43962 51.5563L33.877 65.1561V54.5708L18.646 46.3327L9.43962 51.5563ZM7.76679 50.072V21.6298L16.7042 26.7039V44.998L7.76679 50.072ZM8.80792 19.7889L33.877 5.84392V16.084L17.8155 24.7709L17.6868 24.8399L8.80792 19.7889ZM61.0868 19.7889L36.0294 5.84392V16.084L52.0792 24.7824L52.2079 24.8514L61.0868 19.7889Z" fill="#8ED6FB"/>
<path d="M33.877 52.1661L18.8566 44.0315V27.935L33.877 36.4607V52.1661ZM36.0294 52.1661L51.0498 44.043V27.935L36.0294 36.4607V52.1661ZM19.8626 26.071L34.9532 17.9135L50.0321 26.071L34.9532 34.6313L19.8626 26.071Z" fill="#1C78C0"/>
</svg>
