<svg width="60" height="68" viewBox="0 0 60 68" fill="none" xmlns="http://www.w3.org/2000/svg">
<path d="M30 0L60 16.9327V50.8093L30 67.7419L0 50.8093V16.9327L30 0Z" fill="white"/>
<path d="M54.6453 49.6345L30.9962 62.9976V52.6053L45.7358 44.5061L54.6453 49.6345ZM56.2642 48.1773V20.2537L47.6151 25.2352V43.1958L56.2642 48.1773ZM5.26415 49.6345L28.9132 62.9863V52.594L14.1736 44.5061L5.26415 49.6345ZM3.64528 48.1773V20.2537L12.2943 25.2352V43.1958L3.64528 48.1773ZM4.65283 18.4463L28.9132 4.7556V14.809L13.3698 23.3375L13.2453 23.4053L4.65283 18.4463ZM55.2453 18.4463L30.9962 4.7556V14.809L46.5283 23.3488L46.6528 23.4165L55.2453 18.4463Z" fill="#8ED6FB"/>
<path d="M28.9132 50.2332L14.3774 42.2469V26.4439L28.9132 34.8142V50.2332ZM30.9962 50.2332L45.5321 42.2582V26.4439L30.9962 34.8142V50.2332ZM15.3509 24.6139L29.9547 16.6051L44.5472 24.6139L29.9547 33.0181L15.3509 24.6139Z" fill="#1C78C0"/>
</svg>
