<svg width="136" height="48" viewBox="0 0 136 48" fill="none" xmlns="http://www.w3.org/2000/svg">
<path d="M46.777 25.336H51.529C53.329 25.336 54.673 24.952 55.561 24.184C56.449 23.392 56.893 22.312 56.893 20.944C56.893 19.552 56.449 18.472 55.561 17.704C54.673 16.936 53.329 16.552 51.529 16.552H46.777V25.336Z" fill="black"/>
<path d="M78.5777 32.212H73.2497V16.588H78.5777C80.2577 16.588 81.7097 16.912 82.9337 17.56C84.1817 18.184 85.1417 19.084 85.8137 20.26C86.5097 21.412 86.8577 22.792 86.8577 24.4C86.8577 25.984 86.5097 27.364 85.8137 28.54C85.1417 29.716 84.1817 30.628 82.9337 31.276C81.7097 31.9 80.2577 32.212 78.5777 32.212Z" fill="black"/>
<path fill-rule="evenodd" clip-rule="evenodd" d="M10 0C4.47715 0 0 4.47715 0 10V38C0 43.5228 4.47715 48 10 48H126C131.523 48 136 43.5229 136 38V10C136 4.47715 131.523 0 126 0H10ZM20.472 36.64C22.32 37.168 24.252 37.432 26.268 37.432C28.668 37.432 30.648 37.072 32.208 36.352C33.792 35.632 34.98 34.684 35.772 33.508C36.564 32.332 36.96 31.036 36.96 29.62C36.96 28.3 36.684 27.208 36.132 26.344C35.604 25.48 34.908 24.784 34.044 24.256C33.18 23.728 32.22 23.308 31.164 22.996C30.132 22.684 29.088 22.408 28.032 22.168C27 21.928 26.052 21.688 25.188 21.448C24.324 21.208 23.628 20.896 23.1 20.512C22.572 20.104 22.308 19.576 22.308 18.928C22.308 18.376 22.464 17.896 22.776 17.488C23.088 17.056 23.604 16.708 24.324 16.444C25.044 16.18 25.968 16.048 27.096 16.048C28.224 16.048 29.376 16.216 30.552 16.552C31.728 16.864 32.904 17.356 34.08 18.028L35.88 13.6C34.704 12.856 33.348 12.304 31.812 11.944C30.276 11.56 28.716 11.368 27.132 11.368C24.756 11.368 22.776 11.728 21.192 12.448C19.632 13.144 18.456 14.092 17.664 15.292C16.896 16.468 16.512 17.776 16.512 19.216C16.512 20.56 16.776 21.664 17.304 22.528C17.856 23.392 18.564 24.088 19.428 24.616C20.292 25.144 21.24 25.576 22.272 25.912C23.328 26.248 24.372 26.536 25.404 26.776C26.46 26.992 27.42 27.232 28.284 27.496C29.148 27.736 29.844 28.06 30.372 28.468C30.9 28.852 31.164 29.38 31.164 30.052C31.164 30.58 30.996 31.048 30.66 31.456C30.324 31.864 29.796 32.188 29.076 32.428C28.38 32.644 27.456 32.752 26.304 32.752C24.792 32.752 23.292 32.512 21.804 32.032C20.34 31.528 19.068 30.892 17.988 30.124L16.008 34.516C17.136 35.38 18.624 36.088 20.472 36.64ZM40.945 11.8V37H46.777V29.98H51.853C51.9449 29.98 52.0363 29.9794 52.1272 29.9782L56.965 37H63.265L57.6356 28.9216C57.6521 28.9145 57.6686 28.9073 57.685 28.9C59.317 28.18 60.577 27.148 61.465 25.804C62.353 24.436 62.797 22.816 62.797 20.944C62.797 19.048 62.353 17.416 61.465 16.048C60.577 14.68 59.317 13.636 57.685 12.916C56.053 12.172 54.109 11.8 51.853 11.8H40.945ZM67.4177 11.8V37H78.8657C81.6017 37 84.0137 36.484 86.1017 35.452C88.1897 34.396 89.8217 32.932 90.9977 31.06C92.1737 29.164 92.7617 26.944 92.7617 24.4C92.7617 21.832 92.1737 19.612 90.9977 17.74C89.8217 15.868 88.1897 14.416 86.1017 13.384C84.0137 12.328 81.6017 11.8 78.8657 11.8H67.4177ZM102.956 30.6387V37H97.1599V11.8H102.956V23.5596L114.116 11.8H120.596L110.163 23.0275L121.208 37H114.404L106.333 27.1137L102.956 30.6387Z" fill="black"/>
</svg>
