<svg width="48" height="48" viewBox="0 0 48 48" fill="none" xmlns="http://www.w3.org/2000/svg">
<path d="M0 10C0 4.47715 4.47715 0 10 0H38C43.5228 0 48 4.47715 48 10V38C48 43.5228 43.5228 48 38 48H10C4.47715 48 0 43.5228 0 38V10Z" fill="black"/>
<path d="M24.268 37.432C22.252 37.432 20.32 37.168 18.472 36.64C16.624 36.088 15.136 35.38 14.008 34.516L15.988 30.124C17.068 30.892 18.34 31.528 19.804 32.032C21.292 32.512 22.792 32.752 24.304 32.752C25.456 32.752 26.38 32.644 27.076 32.428C27.796 32.188 28.324 31.864 28.66 31.456C28.996 31.048 29.164 30.58 29.164 30.052C29.164 29.38 28.9 28.852 28.372 28.468C27.844 28.06 27.148 27.736 26.284 27.496C25.42 27.232 24.46 26.992 23.404 26.776C22.372 26.536 21.328 26.248 20.272 25.912C19.24 25.576 18.292 25.144 17.428 24.616C16.564 24.088 15.856 23.392 15.304 22.528C14.776 21.664 14.512 20.56 14.512 19.216C14.512 17.776 14.896 16.468 15.664 15.292C16.456 14.092 17.632 13.144 19.192 12.448C20.776 11.728 22.756 11.368 25.132 11.368C26.716 11.368 28.276 11.56 29.812 11.944C31.348 12.304 32.704 12.856 33.88 13.6L32.08 18.028C30.904 17.356 29.728 16.864 28.552 16.552C27.376 16.216 26.224 16.048 25.096 16.048C23.968 16.048 23.044 16.18 22.324 16.444C21.604 16.708 21.088 17.056 20.776 17.488C20.464 17.896 20.308 18.376 20.308 18.928C20.308 19.576 20.572 20.104 21.1 20.512C21.628 20.896 22.324 21.208 23.188 21.448C24.052 21.688 25 21.928 26.032 22.168C27.088 22.408 28.132 22.684 29.164 22.996C30.22 23.308 31.18 23.728 32.044 24.256C32.908 24.784 33.604 25.48 34.132 26.344C34.684 27.208 34.96 28.3 34.96 29.62C34.96 31.036 34.564 32.332 33.772 33.508C32.98 34.684 31.792 35.632 30.208 36.352C28.648 37.072 26.668 37.432 24.268 37.432Z" fill="white"/>
</svg>
