<svg width="48" height="48" viewBox="0 0 48 48" fill="none" xmlns="http://www.w3.org/2000/svg">
<path fill-rule="evenodd" clip-rule="evenodd" d="M10 0C4.47717 0 0 4.47717 0 10V38C0 43.5228 4.47717 48 10 48H38C43.5228 48 48 43.5228 48 38V10C48 4.47717 43.5228 0 38 0H10ZM18.472 36.64C20.3199 37.168 22.252 37.432 24.2679 37.432C26.668 37.432 28.6479 37.072 30.208 36.352C31.792 35.632 32.98 34.684 33.772 33.508C34.564 32.332 34.96 31.036 34.96 29.62C34.96 28.3 34.684 27.208 34.132 26.344C33.604 25.48 32.908 24.784 32.0439 24.256C31.1801 23.728 30.22 23.308 29.1639 22.996C28.132 22.684 27.088 22.408 26.032 22.168C25 21.928 24.052 21.688 23.188 21.448C22.324 21.208 21.6281 20.896 21.1 20.512C20.572 20.104 20.308 19.576 20.308 18.928C20.308 18.376 20.464 17.896 20.776 17.488C21.088 17.056 21.604 16.708 22.324 16.444C23.0439 16.18 23.968 16.048 25.0959 16.048C26.224 16.048 27.376 16.216 28.552 16.552C29.728 16.864 30.9041 17.356 32.08 18.028L33.88 13.6C32.704 12.856 31.348 12.304 29.812 11.944C28.276 11.56 26.7159 11.368 25.132 11.368C22.756 11.368 20.776 11.728 19.192 12.448C17.632 13.144 16.4561 14.092 15.6639 15.292C14.896 16.468 14.512 17.776 14.512 19.216C14.512 20.56 14.776 21.664 15.304 22.528C15.856 23.392 16.564 24.088 17.428 24.616C18.292 25.144 19.24 25.576 20.272 25.912C21.328 26.248 22.3719 26.536 23.4041 26.776C24.46 26.992 25.42 27.232 26.2841 27.496C27.1479 27.736 27.844 28.06 28.3719 28.468C28.9 28.852 29.1639 29.38 29.1639 30.052C29.1639 30.58 28.996 31.048 28.66 31.456C28.324 31.864 27.796 32.188 27.076 32.428C26.38 32.644 25.4561 32.752 24.304 32.752C22.792 32.752 21.292 32.512 19.804 32.032C18.34 31.528 17.068 30.892 15.988 30.124L14.0081 34.516C15.136 35.38 16.624 36.088 18.472 36.64Z" fill="black"/>
</svg>
