<svg width="136" height="48" viewBox="0 0 136 48" fill="none" xmlns="http://www.w3.org/2000/svg">
<path d="M0 10C0 4.47715 4.47715 0 10 0H126C131.523 0 136 4.47715 136 10V38C136 43.5228 131.523 48 126 48H10C4.47715 48 0 43.5228 0 38V10Z" fill="#FFF000"/>
<path d="M26.268 37.432C24.252 37.432 22.32 37.168 20.472 36.64C18.624 36.088 17.136 35.38 16.008 34.516L17.988 30.124C19.068 30.892 20.34 31.528 21.804 32.032C23.292 32.512 24.792 32.752 26.304 32.752C27.456 32.752 28.38 32.644 29.076 32.428C29.796 32.188 30.324 31.864 30.66 31.456C30.996 31.048 31.164 30.58 31.164 30.052C31.164 29.38 30.9 28.852 30.372 28.468C29.844 28.06 29.148 27.736 28.284 27.496C27.42 27.232 26.46 26.992 25.404 26.776C24.372 26.536 23.328 26.248 22.272 25.912C21.24 25.576 20.292 25.144 19.428 24.616C18.564 24.088 17.856 23.392 17.304 22.528C16.776 21.664 16.512 20.56 16.512 19.216C16.512 17.776 16.896 16.468 17.664 15.292C18.456 14.092 19.632 13.144 21.192 12.448C22.776 11.728 24.756 11.368 27.132 11.368C28.716 11.368 30.276 11.56 31.812 11.944C33.348 12.304 34.704 12.856 35.88 13.6L34.08 18.028C32.904 17.356 31.728 16.864 30.552 16.552C29.376 16.216 28.224 16.048 27.096 16.048C25.968 16.048 25.044 16.18 24.324 16.444C23.604 16.708 23.088 17.056 22.776 17.488C22.464 17.896 22.308 18.376 22.308 18.928C22.308 19.576 22.572 20.104 23.1 20.512C23.628 20.896 24.324 21.208 25.188 21.448C26.052 21.688 27 21.928 28.032 22.168C29.088 22.408 30.132 22.684 31.164 22.996C32.22 23.308 33.18 23.728 34.044 24.256C34.908 24.784 35.604 25.48 36.132 26.344C36.684 27.208 36.96 28.3 36.96 29.62C36.96 31.036 36.564 32.332 35.772 33.508C34.98 34.684 33.792 35.632 32.208 36.352C30.648 37.072 28.668 37.432 26.268 37.432Z" fill="black"/>
<path d="M40.945 37V11.8H51.853C54.109 11.8 56.053 12.172 57.685 12.916C59.317 13.636 60.577 14.68 61.465 16.048C62.353 17.416 62.797 19.048 62.797 20.944C62.797 22.816 62.353 24.436 61.465 25.804C60.577 27.148 59.317 28.18 57.685 28.9C56.053 29.62 54.109 29.98 51.853 29.98H44.185L46.777 27.424V37H40.945ZM56.965 37L50.665 27.856H56.893L63.265 37H56.965ZM46.777 28.072L44.185 25.336H51.529C53.329 25.336 54.673 24.952 55.561 24.184C56.449 23.392 56.893 22.312 56.893 20.944C56.893 19.552 56.449 18.472 55.561 17.704C54.673 16.936 53.329 16.552 51.529 16.552H44.185L46.777 13.78V28.072Z" fill="black"/>
<path d="M67.4177 37V11.8H78.8657C81.6017 11.8 84.0137 12.328 86.1017 13.384C88.1897 14.416 89.8217 15.868 90.9977 17.74C92.1737 19.612 92.7617 21.832 92.7617 24.4C92.7617 26.944 92.1737 29.164 90.9977 31.06C89.8217 32.932 88.1897 34.396 86.1017 35.452C84.0137 36.484 81.6017 37 78.8657 37H67.4177ZM73.2497 32.212H78.5777C80.2577 32.212 81.7097 31.9 82.9337 31.276C84.1817 30.628 85.1417 29.716 85.8137 28.54C86.5097 27.364 86.8577 25.984 86.8577 24.4C86.8577 22.792 86.5097 21.412 85.8137 20.26C85.1417 19.084 84.1817 18.184 82.9337 17.56C81.7097 16.912 80.2577 16.588 78.5777 16.588H73.2497V32.212Z" fill="black"/>
<path d="M102.38 31.24L102.056 24.508L114.116 11.8H120.596L109.724 23.5L106.484 26.956L102.38 31.24ZM97.1599 37V11.8H102.956V37H97.1599ZM114.404 37L105.44 26.02L109.256 21.88L121.208 37H114.404Z" fill="black"/>
</svg>
